<svg xmlns="http://www.w3.org/2000/svg" xmlns:xlink="http://www.w3.org/1999/xlink" xmlns:lucid="lucid" width="1480" height="3180"><g transform="translate(-140 -40)" lucid:page-tab-id="0_0"><path d="M0 0h1870.4v3841.6H0z" fill="#fff"/><path d="M500 66c0-3.3 2.7-6 6-6h128c3.3 0 6 2.7 6 6v68c0 3.3-2.7 6-6 6H506c-3.3 0-6-2.7-6-6z" stroke="#5e5e5e" stroke-width="3" fill="#fff"/><use xlink:href="#a" transform="matrix(1,0,0,1,512,72) translate(14.23456790123457 31.77777777777778)"/><use xlink:href="#b" transform="matrix(1,0,0,1,512,72) translate(86.95061728395062 31.77777777777778)"/><path d="M1131 66c0-3.3 2.7-6 6-6h128c3.3 0 6 2.7 6 6v68c0 3.3-2.7 6-6 6h-128c-3.3 0-6-2.7-6-6z" stroke="#5e5e5e" stroke-width="3" fill="#fff"/><use xlink:href="#a" transform="matrix(1,0,0,1,1143,72) translate(14.23456790123457 31.77777777777778)"/><use xlink:href="#c" transform="matrix(1,0,0,1,1143,72) translate(86.95061728395062 31.77777777777778)"/><path d="M1201 402.5v10.1m0 10.12v20.22m0 10.12v20.22m0 10.1v20.23m0 10.12v20.22m0 10.12v20.22m0 10.1v10.12" stroke="#5e5e5e" stroke-width="2" fill="none"/><path d="M1202 402.53h-2v-1.03h2zM1202 585.5h-2v-1.03h2z" fill="#5e5e5e"/><path d="M1201 142.5v15" stroke="#5e5e5e" stroke-width="2" fill="none"/><path d="M1202 142.53h-2v-1.03h2zM1202 158.5h-2v-1.03h2z" fill="#5e5e5e"/><path d="M1201 669.5v10.17m0 10.16v20.34m0 10.16v20.34m0 10.16v20.34m0 10.16v20.34m0 10.16v20.34m0 10.16v20.34m0 10.16v20.34m0 10.16v20.34m0 10.16v20.34m0 10.16v20.34m0 10.16v20.34m0 10.16v20.34m0 10.16v20.34m0 10.16v20.34m0 10.16v20.34m0 10.16v10.17" stroke="#5e5e5e" stroke-width="2" fill="none"/><path d="M1202 669.53h-2v-1.03h2zM1202 1158.5h-2v-1.03h2z" fill="#5e5e5e"/><path d="M1201 1242.5v9.9m0 9.88v19.78m0 9.88v19.78m0 9.9v19.77m0 9.88v19.78m0 9.88v19.78m0 9.9v9.88" stroke="#5e5e5e" stroke-width="2" fill="none"/><path d="M1202 1242.53h-2v-1.03h2zM1202 1421.5h-2v-1.03h2z" fill="#5e5e5e"/><path d="M570 2459v14.9m0 14.88v14.9" stroke="#5e5e5e" stroke-width="2" fill="none"/><path d="M571 2459.03h-2V2458h2zM571 2504.68h-2v-1.03h2z" fill="#5e5e5e"/><path d="M570 417.75v8.92m0 8.9v8.93" stroke="#5e5e5e" stroke-width="2" fill="none"/><path d="M571 417.78h-2v-1.03h2zM571 445.5h-2v-1.03h2z" fill="#5e5e5e"/><path d="M570 142.5v8.33m0 8.34v16.66m0 8.34v16.66m0 8.34v8.33" stroke="#5e5e5e" stroke-width="2" fill="none"/><path d="M571 142.53h-2v-1.03h2zM571 218.5h-2v-1.03h2z" fill="#5e5e5e"/><path d="M570 529.5v9.17m0 9.16v18.34m0 9.16v9.17" stroke="#5e5e5e" stroke-width="2" fill="none"/><path d="M571 529.53h-2v-1.03h2zM571 585.5h-2v-1.03h2z" fill="#5e5e5e"/><path d="M1191 453c0-3.3 2.7-6 6-6h8c3.3 0 6 2.7 6 6v68c0 3.3-2.7 6-6 6h-8c-3.3 0-6-2.7-6-6z" stroke="#5e5e5e" stroke-width="3" fill="#fff"/><path d="M790.44 473.42H583.32v-2h207.12zm398.06 0H980.56v-2h207.94z" fill="#5e5e5e"/><path d="M1189.5 473.42h-1.03v-2h1.03zM601.2 463.1l-15.77 9.32 15.76 9.32-1.03 1.72-18.67-11.04 18.67-11.04z" fill="#5e5e5e"/><use xlink:href="#d" transform="matrix(1,0,0,1,790.4382716049383,461.75312156294405) translate(0 14.222222222222223)"/><path d="M790.44 508.47H582.5v-2h207.94zm397.24 0H980.56v-2h207.12z" fill="#5e5e5e"/><path d="M582.53 508.47h-1.03v-2h1.03zM1189.5 507.47l-18.67 11.04-1.02-1.7 15.77-9.33-15.76-9.32 1.03-1.72z" fill="#5e5e5e"/><use xlink:href="#d" transform="matrix(1,0,0,1,790.4382716049383,496.80359000620075) translate(0 14.222222222222223)"/><path d="M560 453c0-3.3 2.7-6 6-6h8c3.3 0 6 2.7 6 6v68c0 3.3-2.7 6-6 6h-8c-3.3 0-6-2.7-6-6zM1191 593c0-3.3 2.7-6 6-6h8c3.3 0 6 2.7 6 6v68c0 3.3-2.7 6-6 6h-8c-3.3 0-6-2.7-6-6zM560 593c0-3.3 2.7-6 6-6h8c3.3 0 6 2.7 6 6v68c0 3.3-2.7 6-6 6h-8c-3.3 0-6-2.7-6-6z" stroke="#5e5e5e" stroke-width="3" fill="#fff"/><path d="M827.82 608h-244.5v-2h244.5zm360.68 0H943.18v-2h245.32z" fill="#5e5e5e"/><path d="M1189.5 608h-1.03v-2h1.03zM601.2 597.67L585.42 607l15.76 9.3-1.03 1.73L581.5 607l18.67-11.05z" fill="#5e5e5e"/><use xlink:href="#e" transform="matrix(1,0,0,1,827.820987654321,596.3231346764852) translate(0 14.222222222222223)"/><path d="M827.82 643.64H582.5v-2h245.32zm359.86 0h-244.5v-2h244.5z" fill="#5e5e5e"/><path d="M582.53 643.64h-1.03v-2h1.03zM1189.5 642.64l-18.67 11.04-1.02-1.72 15.77-9.32-15.76-9.32 1.03-1.72z" fill="#5e5e5e"/><use xlink:href="#e" transform="matrix(1,0,0,1,827.820987654321,631.9708202694761) translate(0 14.222222222222223)"/><path d="M1191 166c0-3.3 2.7-6 6-6h8c3.3 0 6 2.7 6 6v228c0 3.3-2.7 6-6 6h-8c-3.3 0-6-2.7-6-6z" stroke="#5e5e5e" stroke-width="3" fill="#fff"/><path d="M1213.5 180.16h33c3.3 0 6 2.7 6 6v60.4c0 3.32-2.7 6-6 6H1231" stroke="#5e5e5e" stroke-width="2" fill="none"/><path d="M1213.53 181.16h-1.03v-2h1.03z" fill="#5e5e5e"/><path d="M1215.74 252.57l14.26-4.64v9.27z" stroke="#5e5e5e" stroke-width="2" fill="#5e5e5e"/><use xlink:href="#f" transform="matrix(1,0,0,1,1260.5,205.6981140720845) translate(0 14.222222222222223)"/><use xlink:href="#g" transform="matrix(1,0,0,1,1260.5,205.6981140720845) translate(60.14814814814816 14.222222222222223)"/><use xlink:href="#h" transform="matrix(1,0,0,1,1260.5,205.6981140720845) translate(126.07407407407408 14.222222222222223)"/><path d="M557.5 507.48H441.82" stroke="#5e5e5e" stroke-width="2" fill="none"/><path d="M558.5 508.48h-1.03v-2h1.03z" fill="#5e5e5e"/><path d="M459.18 497.3l-17.2 10.18 17.2 10.18" stroke="#5e5e5e" stroke-width="2" fill="none"/><use xlink:href="#d" transform="matrix(1,0,0,1,344.9382716049383,482.14704935045614) translate(0 14.222222222222223)"/><path d="M1213.5 473.33h155.68" stroke="#5e5e5e" stroke-width="2" fill="none"/><path d="M1213.53 474.33h-1.03v-2h1.03z" fill="#5e5e5e"/><path d="M1351.82 483.5l17.22-10.17-17.22-10.18" stroke="#5e5e5e" stroke-width="2" fill="none"/><use xlink:href="#d" transform="matrix(1,0,0,1,1275.9382716049383,447.9950140257987) translate(0 14.222222222222223)"/><path d="M1213.5 606.14h155.68" stroke="#5e5e5e" stroke-width="2" fill="none"/><path d="M1213.53 607.14h-1.03v-2h1.03z" fill="#5e5e5e"/><path d="M1351.82 616.32l17.22-10.18-17.22-10.18" stroke="#5e5e5e" stroke-width="2" fill="none"/><use xlink:href="#e" transform="matrix(1,0,0,1,1234.070987654321,580.8084847328001) translate(0 14.222222222222223)"/><path d="M557.5 642.2H441.82" stroke="#5e5e5e" stroke-width="2" fill="none"/><path d="M558.5 643.2h-1.03v-2h1.03z" fill="#5e5e5e"/><path d="M459.18 632l-17.22 10.2 17.22 10.17" stroke="#5e5e5e" stroke-width="2" fill="none"/><use xlink:href="#e" transform="matrix(1,0,0,1,441.570987654321,616.8578553532718) translate(0 14.222222222222223)"/><path d="M1191 1166c0-3.3 2.7-6 6-6h8c3.3 0 6 2.7 6 6v68c0 3.3-2.7 6-6 6h-8c-3.3 0-6-2.7-6-6z" stroke="#5e5e5e" stroke-width="3" fill="#fff"/><path d="M1213.5 299.2h33c3.3 0 6 2.67 6 6v71.3c0 3.32-2.7 6-6 6H1231" stroke="#5e5e5e" stroke-width="2" fill="none"/><path d="M1213.53 300.2h-1.03v-2h1.03z" fill="#5e5e5e"/><path d="M1215.74 382.5l14.26-4.63v9.27z" stroke="#5e5e5e" stroke-width="2" fill="#5e5e5e"/><use xlink:href="#f" transform="matrix(1,0,0,1,1260.5,330.18168843221054) translate(0 14.222222222222223)"/><use xlink:href="#i" transform="matrix(1,0,0,1,1260.5,330.18168843221054) translate(60.14814814814816 14.222222222222223)"/><use xlink:href="#j" transform="matrix(1,0,0,1,1260.5,330.18168843221054) translate(213.7283950617284 14.222222222222223)"/><path d="M560 226c0-3.3 2.7-6 6-6h8c3.3 0 6 2.7 6 6v183.25c0 3.3-2.7 6-6 6h-8c-3.3 0-6-2.7-6-6z" stroke="#5e5e5e" stroke-width="3" fill="#fff"/><path d="M582.5 236.4h33c3.3 0 6 2.7 6 6v46.9c0 3.32-2.7 6-6 6H600" stroke="#5e5e5e" stroke-width="2" fill="none"/><path d="M582.53 237.4h-1.03v-2h1.03z" fill="#5e5e5e"/><path d="M584.74 295.3l14.26-4.63v9.27z" stroke="#5e5e5e" stroke-width="2" fill="#5e5e5e"/><use xlink:href="#f" transform="matrix(1,0,0,1,629.5,255.18843099683815) translate(0 14.222222222222223)"/><use xlink:href="#g" transform="matrix(1,0,0,1,629.5,255.18843099683815) translate(60.14814814814816 14.222222222222223)"/><use xlink:href="#h" transform="matrix(1,0,0,1,629.5,255.18843099683815) translate(126.07407407407408 14.222222222222223)"/><path d="M582.5 333.24h33c3.3 0 6 2.68 6 6v55.78c0 3.3-2.7 6-6 6H600" stroke="#5e5e5e" stroke-width="2" fill="none"/><path d="M582.53 334.24h-1.03v-2h1.03z" fill="#5e5e5e"/><path d="M584.74 401.02l14.26-4.64v9.27z" stroke="#5e5e5e" stroke-width="2" fill="#5e5e5e"/><use xlink:href="#f" transform="matrix(1,0,0,1,629.5,356.46100555439904) translate(0 14.222222222222223)"/><use xlink:href="#i" transform="matrix(1,0,0,1,629.5,356.46100555439904) translate(60.14814814814816 14.222222222222223)"/><use xlink:href="#j" transform="matrix(1,0,0,1,629.5,356.46100555439904) translate(213.7283950617284 14.222222222222223)"/><path d="M1188.5 1177.04h-33c-3.3 0-6 2.7-6 6v33.68c0 3.3 2.7 6 6 6h15.5" stroke="#5e5e5e" stroke-width="2" fill="none"/><path d="M1189.5 1178.04h-1.03v-2h1.03z" fill="#5e5e5e"/><path d="M1186.26 1222.72l-14.26 4.63v-9.27z" stroke="#5e5e5e" stroke-width="2" fill="#5e5e5e"/><use xlink:href="#k" transform="matrix(1,0,0,1,942.4382716049381,1189.2122159960716) translate(0 14.222222222222223)"/><use xlink:href="#l" transform="matrix(1,0,0,1,942.4382716049381,1189.2122159960716) translate(63.01234567901235 14.222222222222223)"/><use xlink:href="#j" transform="matrix(1,0,0,1,942.4382716049381,1189.2122159960716) translate(134.962962962963 14.222222222222223)"/><path d="M560 1163.5c0-3.3 2.7-6 6-6h8c3.3 0 6 2.7 6 6V1394c0 3.3-2.7 6-6 6h-8c-3.3 0-6-2.7-6-6z" stroke="#5e5e5e" stroke-width="3" fill="#fff"/><path d="M557.5 1188.74h-33c-3.3 0-6 2.7-6 6v158.1c0 3.3 2.7 6 6 6H540" stroke="#5e5e5e" stroke-width="2" fill="none"/><path d="M558.5 1189.74h-1.03v-2h1.03z" fill="#5e5e5e"/><path d="M555.26 1358.83l-14.26 4.64v-9.27z" stroke="#5e5e5e" stroke-width="2" fill="#5e5e5e"/><use xlink:href="#k" transform="matrix(1,0,0,1,311.4382716049382,1263.1213164875846) translate(0 14.222222222222223)"/><use xlink:href="#l" transform="matrix(1,0,0,1,311.4382716049382,1263.1213164875846) translate(63.01234567901235 14.222222222222223)"/><use xlink:href="#j" transform="matrix(1,0,0,1,311.4382716049382,1263.1213164875846) translate(134.962962962963 14.222222222222223)"/><path d="M680 1398.5c0-3.3 2.7-6 6-6h113c3.3 0 6 2.7 6 6v8c0 3.3-1.9 7.9-4.24 10.24l-1.52 1.52c-2.34 2.34-6.93 4.24-10.24 4.24H686c-3.3 0-6-2.7-6-6z" fill="#fff"/><path d="M805 1392.5v20l-10 10H680" stroke="#5e5e5e" stroke-width="3" fill="none"/><path d="M680 1398.5c0-3.3 2.7-6 6-6h548c3.3 0 6 2.7 6 6v488c0 3.3-2.7 6-6 6H686c-3.3 0-6-2.7-6-6zM680 1642.5h20m15 0h20m15 0h20m15 0h20m15 0h20m15 0h20m15 0h20m15 0h20m15 0h20m15 0h20m15 0h20m15 0h20m15 0h20m15 0h20m15 0h20m15 0h20" stroke="#5e5e5e" stroke-width="3" fill="none"/><use xlink:href="#m" transform="matrix(1,0,0,1,688,1392.5) translate(0 19.444444444444443)"/><use xlink:href="#n" transform="matrix(1,0,0,1,692,1430.5) translate(0 19.444444444444443)"/><use xlink:href="#o" transform="matrix(1,0,0,1,692,1430.5) translate(17.22222222222222 19.444444444444443)"/><use xlink:href="#p" transform="matrix(1,0,0,1,692,1650.5) translate(0 19.444444444444443)"/><path d="M1188.5 1549.9h-33c-3.3 0-6 2.67-6 6v48.1c0 3.3 2.7 6 6 6h15.5" stroke="#5e5e5e" stroke-width="2" fill="none"/><path d="M1189.5 1550.9h-1.03v-2h1.03z" fill="#5e5e5e"/><path d="M1186.26 1610l-14.26 4.64v-9.28z" stroke="#5e5e5e" stroke-width="2" fill="#5e5e5e"/><use xlink:href="#q" transform="matrix(1,0,0,1,978.7345679012346,1569.2765223572937) translate(0 14.222222222222223)"/><use xlink:href="#r" transform="matrix(1,0,0,1,978.7345679012346,1569.2765223572937) translate(86.76543209876544 14.222222222222223)"/><path d="M1188.5 1671.45h-33c-3.3 0-6 2.68-6 6v43.64c0 3.3 2.7 6 6 6h15.5" stroke="#5e5e5e" stroke-width="2" fill="none"/><path d="M1189.5 1672.45h-1.03v-2h1.03z" fill="#5e5e5e"/><path d="M1186.26 1727.1l-14.26 4.62v-9.27z" stroke="#5e5e5e" stroke-width="2" fill="#5e5e5e"/><use xlink:href="#k" transform="matrix(1,0,0,1,1037.104938271605,1688.6011932754059) translate(0 14.222222222222223)"/><use xlink:href="#s" transform="matrix(1,0,0,1,1037.104938271605,1688.6011932754059) translate(63.01234567901235 14.222222222222223)"/><path d="M1188.5 1741.35h-297c-3.3 0-6 2.68-6 6v24.95c0 3.32-2.7 6-6 6H583.32" stroke="#5e5e5e" stroke-width="2" fill="none"/><path d="M1189.5 1742.35h-1.03v-2h1.03z" fill="#5e5e5e"/><path d="M600.68 1768.12l-17.22 10.18 17.22 10.18" stroke="#5e5e5e" stroke-width="2" fill="none"/><use xlink:href="#t" transform="matrix(1,0,0,1,878.5685577746724,1771.3469957380769) translate(0 14.222222222222223)"/><use xlink:href="#u" transform="matrix(1,0,0,1,878.5685577746724,1771.3469957380769) translate(69.97530864197532 14.222222222222223)"/><use xlink:href="#v" transform="matrix(1,0,0,1,878.5685577746724,1771.3469957380769) translate(150.9135802469136 14.222222222222223)"/><use xlink:href="#w" transform="matrix(1,0,0,1,878.5685577746724,1771.3469957380769) translate(172.54320987654322 14.222222222222223)"/><path d="M260 1546c0-3.3 2.7-6 6-6h113c3.3 0 6 2.7 6 6v8c0 3.3-1.9 7.9-4.24 10.24l-1.52 1.52c-2.34 2.34-6.93 4.24-10.24 4.24H266c-3.3 0-6-2.7-6-6z" fill="#fff"/><path d="M385 1540v20l-10 10H260" stroke="#5e5e5e" stroke-width="3" fill="none"/><path d="M260 1546c0-3.3 2.7-6 6-6h348c3.3 0 6 2.7 6 6v528c0 3.3-2.7 6-6 6H266c-3.3 0-6-2.7-6-6zM260 1810h20m15 0h20m15 0h20m15 0h20m15 0h20m15 0h20m15 0h20m15 0h20m15 0h20m15 0h20m15 0h10" stroke="#5e5e5e" stroke-width="3" fill="none"/><use xlink:href="#m" transform="matrix(1,0,0,1,268,1540) translate(0 19.444444444444443)"/><use xlink:href="#n" transform="matrix(1,0,0,1,272,1578) translate(0 19.444444444444443)"/><use xlink:href="#o" transform="matrix(1,0,0,1,272,1578) translate(17.22222222222222 19.444444444444443)"/><use xlink:href="#p" transform="matrix(1,0,0,1,272,1818) translate(0 19.444444444444443)"/><path d="M570 669.5v10.1m0 10.13v20.23m0 10.1v20.24m0 10.12v20.23m0 10.1V801m0 10.1v20.23m0 10.12v20.23m0 10.1v20.24m0 10.12v20.22m0 10.12v20.23m0 10.12v20.23m0 10.12v20.23m0 10.1v20.24m0 10.1v20.24m0 10.12v20.23m0 10.1v20.24m0 10.12v10.1" stroke="#5e5e5e" stroke-width="2" fill="none"/><path d="M571 669.53h-2v-1.03h2zM571 1156h-2v-1.03h2z" fill="#5e5e5e"/><path d="M570 1597.5v-9.3m0-9.27v-18.57m0-9.3v-18.56m0-9.3v-18.56m0-9.28v-18.57m0-9.3v-18.57m0-9.3v-18.56m0-9.28v-9.3" stroke="#5e5e5e" stroke-width="2" fill="none"/><path d="M571 1598.5h-2v-1.03h2zM571 1402.53h-2v-1.03h2z" fill="#5e5e5e"/><path d="M570 2062.5v9.76m0 9.77v19.53m0 9.76v19.53m0 9.76v19.54m0 9.76v19.53m0 9.76v19.52m0 9.77v19.5m0 9.78v19.53m0 9.77v19.53m0 9.76v19.53m0 9.75v19.53m0 9.76v19.53m0 9.77v9.76" stroke="#5e5e5e" stroke-width="2" fill="none"/><path d="M571 2062.53h-2v-1.03h2zM571 2415h-2v-1.03h2z" fill="#5e5e5e"/><path d="M560 2422.5c0-3.3 2.7-6 6-6h8c3.3 0 6 2.7 6 6v28c0 3.3-2.7 6-6 6h-8c-3.3 0-6-2.7-6-6z" stroke="#5e5e5e" stroke-width="3" fill="#fff"/><path d="M200 2402.5c0-3.3 2.7-6 6-6h108c3.3 0 6 2.7 6 6v8c0 3.3-1.9 7.9-4.24 10.24l-1.52 1.52c-2.34 2.34-6.93 4.24-10.24 4.24h-98c-3.3 0-6-2.7-6-6z" fill="#fff"/><path d="M320 2396.5v20l-10 10H200" stroke="#5e5e5e" stroke-width="3" fill="none"/><path d="M200 2402.5c0-3.3 2.7-6 6-6h1028c3.3 0 6 2.7 6 6V2658c0 3.3-2.7 6-6 6H206c-3.3 0-6-2.7-6-6zM200 2474h20m15 0h20m15 0h20m15 0h20m15 0h20m15 0h20m15 0h20m15 0h20m15 0h20m15 0h20m15 0h20m15 0h20m15 0h20m15 0h20m15 0h20m15 0h20m15 0h20m15 0h20m15 0h20m15 0h20m15 0h20m15 0h20m15 0h20m15 0h20m15 0h20m15 0h20m15 0h20m15 0h20m15 0h20m15 0h20" stroke="#5e5e5e" stroke-width="3" fill="none"/><use xlink:href="#m" transform="matrix(1,0,0,1,208,2396.5) translate(0 19.444444444444443)"/><use xlink:href="#n" transform="matrix(1,0,0,1,212,2434.5) translate(0 19.444444444444443)"/><use xlink:href="#x" transform="matrix(1,0,0,1,212,2434.5) translate(17.22222222222222 19.444444444444443)"/><use xlink:href="#p" transform="matrix(1,0,0,1,212,2482) translate(0 19.444444444444443)"/><path d="M632.77 2437.1H582.5v-2h50.27zm243.9 0h-49.44v-2h49.45z" fill="#5e5e5e"/><path d="M582.53 2437.1h-1.03v-2h1.03zM878.5 2436.1l-18.67 11.05-1.02-1.72 15.77-9.32-15.76-9.3 1.03-1.73z" fill="#5e5e5e"/><use xlink:href="#y" transform="matrix(1,0,0,1,632.7654320987655,2425.445479603814) translate(0 14.222222222222223)"/><use xlink:href="#z" transform="matrix(1,0,0,1,632.7654320987655,2425.445479603814) translate(101.67901234567901 14.222222222222223)"/><path d="M880 2422.5c0-3.3 2.7-6 6-6h8c3.3 0 6 2.7 6 6v28c0 3.3-2.7 6-6 6h-8c-3.3 0-6-2.7-6-6zM560 2512.18c0-3.32 2.7-6 6-6h8c3.3 0 6 2.68 6 6v128c0 3.3-2.7 6-6 6h-8c-3.3 0-6-2.7-6-6z" stroke="#5e5e5e" stroke-width="3" fill="#fff"/><path d="M557.5 2518.77h-33c-3.3 0-6 2.7-6 6v23.94c0 3.33 2.7 6 6 6H540" stroke="#5e5e5e" stroke-width="2" fill="none"/><path d="M558.5 2519.77h-1.03v-2h1.03z" fill="#5e5e5e"/><path d="M555.26 2554.7l-14.26 4.65v-9.27z" stroke="#5e5e5e" stroke-width="2" fill="#5e5e5e"/><use xlink:href="#A" transform="matrix(1,0,0,1,239.7839506172839,2526.0757337509326) translate(0 14.222222222222223)"/><use xlink:href="#B" transform="matrix(1,0,0,1,239.7839506172839,2526.0757337509326) translate(37.38271604938272 14.222222222222223)"/><use xlink:href="#C" transform="matrix(1,0,0,1,239.7839506172839,2526.0757337509326) translate(112.24691358024693 14.222222222222223)"/><use xlink:href="#v" transform="matrix(1,0,0,1,239.7839506172839,2526.0757337509326) translate(154.56790123456793 14.222222222222223)"/><use xlink:href="#D" transform="matrix(1,0,0,1,239.7839506172839,2526.0757337509326) translate(176.19753086419755 14.222222222222223)"/><path d="M557.5 2571.48h-33c-3.3 0-6 2.7-6 6v26.77c0 3.32 2.7 6 6 6H540" stroke="#5e5e5e" stroke-width="2" fill="none"/><path d="M558.5 2572.48h-1.03v-2h1.03z" fill="#5e5e5e"/><path d="M555.26 2610.25L541 2614.9v-9.28z" stroke="#5e5e5e" stroke-width="2" fill="#5e5e5e"/><use xlink:href="#E" transform="matrix(1,0,0,1,335.19135802469134,2580.2014153814966) translate(0 14.222222222222223)"/><use xlink:href="#F" transform="matrix(1,0,0,1,335.19135802469134,2580.2014153814966) translate(89.7283950617284 14.222222222222223)"/><use xlink:href="#G" transform="matrix(1,0,0,1,335.19135802469134,2580.2014153814966) translate(127.11111111111111 14.222222222222223)"/><path d="M582.5 2622.83h605.18" stroke="#5e5e5e" stroke-width="2" fill="none"/><path d="M582.53 2623.83h-1.03v-2h1.03z" fill="#5e5e5e"/><path d="M1170.32 2633l17.22-10.17-17.22-10.18" stroke="#5e5e5e" stroke-width="2" fill="none"/><use xlink:href="#t" transform="matrix(1,0,0,1,617.7088805967413,2597.4966217314513) translate(0 14.222222222222223)"/><use xlink:href="#H" transform="matrix(1,0,0,1,617.7088805967413,2597.4966217314513) translate(69.97530864197532 14.222222222222223)"/><use xlink:href="#I" transform="matrix(1,0,0,1,617.7088805967413,2597.4966217314513) translate(91.60493827160495 14.222222222222223)"/><use xlink:href="#J" transform="matrix(1,0,0,1,617.7088805967413,2597.4966217314513) translate(132.98765432098767 14.222222222222223)"/><use xlink:href="#K" transform="matrix(1,0,0,1,617.7088805967413,2597.4966217314513) translate(180.24691358024694 14.222222222222223)"/><use xlink:href="#L" transform="matrix(1,0,0,1,617.7088805967413,2597.4966217314513) translate(200.9382716049383 14.222222222222223)"/><path d="M890 2414v-10.08m0-10.08v-20.16m0-10.08v-20.16m0-10.08v-20.16m0-10.08v-20.16m0-10.08v-20.16m0-10.08v-20.16m0-10.08v-20.16m0-10.08V2162m0-10.08v-20.16m0-10.08v-20.16m0-10.08v-20.16m0-10.08v-20.15m0-10.08v-20.16m0-10.07v-20.16m0-10.08v-20.17m0-10.08v-20.16m0-10.1v-20.15m0-10.08v-20.16m0-10.07v-20.16m0-10.08v-20.17m0-10.08v-20.16m0-10.1v-20.15m0-10.08v-20.16m0-10.07v-20.16m0-10.08v-20.17m0-10.08v-20.16m0-10.1v-20.15m0-10.08v-20.16m0-10.07v-20.16m0-10.08v-20.17m0-10.08v-20.16m0-10.1v-20.15m0-10.08V1406m0-10.07v-20.16m0-10.08v-20.16m0-10.08v-20.16m0-10.08v-20.16m0-10.08v-20.16m0-10.08v-20.16m0-10.08v-20.16m0-10.08v-20.16m0-10.08v-20.16m0-10.08v-20.16m0-10.08v-20.16m0-10.08v-20.16m0-10.08v-20.16m0-10.08v-20.16m0-10.08V962.5" stroke="#5e5e5e" stroke-width="2" fill="none"/><path d="M891 2415h-2v-1.03h2zM891 962.53h-2v-1.03h2z" fill="#5e5e5e"/><path d="M1191 2608.83c0-3.3 2.7-6 6-6h8c3.3 0 6 2.7 6 6v28c0 3.3-2.7 6-6 6h-8c-3.3 0-6-2.7-6-6z" stroke="#5e5e5e" stroke-width="3" fill="#fff"/><path d="M860 2790c0-3.3 2.7-6 6-6h108c3.3 0 6 2.7 6 6v8c0 3.3-1.9 7.9-4.24 10.24l-1.52 1.52c-2.34 2.34-6.93 4.24-10.24 4.24h-98c-3.3 0-6-2.7-6-6z" fill="#fff"/><path d="M980 2784v20l-10 10H860" stroke="#5e5e5e" stroke-width="3" fill="none"/><path d="M860 2790c0-3.3 2.7-6 6-6h688c3.3 0 6 2.7 6 6v348c0 3.3-2.7 6-6 6H866c-3.3 0-6-2.7-6-6zM860 2929h20m15 0h20m15 0h20m15 0h20m15 0h20m15 0h20m15 0h20m15 0h20m15 0h20m15 0h20m15 0h20m15 0h20m15 0h20m15 0h20m15 0h20m15 0h20m15 0h20m15 0h20m15 0h20m15 0h20" stroke="#5e5e5e" stroke-width="3" fill="none"/><use xlink:href="#m" transform="matrix(1,0,0,1,868,2784) translate(0 19.444444444444443)"/><use xlink:href="#n" transform="matrix(1,0,0,1,872,2822) translate(0 19.444444444444443)"/><use xlink:href="#x" transform="matrix(1,0,0,1,872,2822) translate(17.22222222222222 19.444444444444443)"/><use xlink:href="#p" transform="matrix(1,0,0,1,872,2937) translate(0 19.444444444444443)"/><path d="M1201 2027.5v10.05m0 10.05v20.1m0 10.05v20.1m0 10.05v20.1m0 10.05v20.1m0 10.05v20.1m0 10.04v20.1m0 10.05v20.1m0 10.04v20.1m0 10.05v20.1m0 10.04v20.1m0 10.05v20.1m0 10.04v20.1m0 10.05v20.1m0 10.04v20.1m0 10.04v20.1m0 10.05v20.1m0 10.05v20.1m0 10.05v20.1m0 10.05v10.05" stroke="#5e5e5e" stroke-width="2" fill="none"/><path d="M1202 2027.53h-2v-1.03h2zM1202 2601.33h-2v-1.03h2z" fill="#5e5e5e"/><path d="M1201 1825.2v9.35m0 9.36v18.73m0 9.36v18.7m0 9.36v18.72m0 9.36v9.36" stroke="#5e5e5e" stroke-width="2" fill="none"/><path d="M1202 1825.22h-2v-1.03h2zM1202 1938.5h-2v-1.03h2z" fill="#5e5e5e"/><path d="M880 2870c0-3.3 2.7-6 6-6h8c3.3 0 6 2.7 6 6v28c0 3.3-2.7 6-6 6h-8c-3.3 0-6-2.7-6-6z" stroke="#5e5e5e" stroke-width="3" fill="#fff"/><path d="M890 2459v10.32m0 10.32v20.64m0 10.32v20.64m0 10.32v20.65m0 10.33v20.64m0 10.32v20.63m0 10.32v20.64m0 10.3v20.65m0 10.32V2717m0 10.33v20.64m0 10.32v20.64m0 10.32v20.64m0 10.32v20.64m0 10.32v10.32" stroke="#5e5e5e" stroke-width="2" fill="none"/><path d="M891 2459.03h-2V2458h2zM891 2862.5h-2v-1.03h2z" fill="#5e5e5e"/><path d="M1191 2870c0-3.3 2.7-6 6-6h8c3.3 0 6 2.7 6 6v28c0 3.3-2.7 6-6 6h-8c-3.3 0-6-2.7-6-6z" stroke="#5e5e5e" stroke-width="3" fill="#fff"/><path d="M977.04 2885h-73.72v-2h73.72zm211.46 0h-17v-2h17z" fill="#5e5e5e"/><path d="M1189.5 2885h-1.03v-2h1.03zM921.2 2874.68l-15.77 9.32 15.76 9.32-1.03 1.72L901.5 2884l18.67-11.04z" fill="#5e5e5e"/><use xlink:href="#y" transform="matrix(1,0,0,1,977.0436613211954,2873.3333333333335) translate(0 14.222222222222223)"/><use xlink:href="#z" transform="matrix(1,0,0,1,977.0436613211954,2873.3333333333335) translate(101.67901234567901 14.222222222222223)"/><path d="M1201 2645.33v10.3m0 10.3v20.58m0 10.3v20.6m0 10.28v20.6m0 10.28v20.6m0 10.28v20.6m0 10.28v20.6m0 10.3v10.28" stroke="#5e5e5e" stroke-width="2" fill="none"/><path d="M1202 2645.36h-2v-1.03h2zM1202 2862.5h-2v-1.03h2z" fill="#5e5e5e"/><path d="M1191 2970c0-3.3 2.7-6 6-6h8c3.3 0 6 2.7 6 6v128c0 3.3-2.7 6-6 6h-8c-3.3 0-6-2.7-6-6z" stroke="#5e5e5e" stroke-width="3" fill="#fff"/><path d="M1213.5 2978.04h33c3.3 0 6 2.7 6 6v25.43c0 3.3-2.7 6-6 6H1231" stroke="#5e5e5e" stroke-width="2" fill="none"/><path d="M1213.53 2979.04h-1.03v-2h1.03z" fill="#5e5e5e"/><path d="M1215.74 3015.47l14.26-4.64v9.27z" stroke="#5e5e5e" stroke-width="2" fill="#5e5e5e"/><use xlink:href="#A" transform="matrix(1,0,0,1,1260.5,2986.086586944782) translate(0 14.222222222222223)"/><use xlink:href="#B" transform="matrix(1,0,0,1,1260.5,2986.086586944782) translate(37.38271604938272 14.222222222222223)"/><use xlink:href="#C" transform="matrix(1,0,0,1,1260.5,2986.086586944782) translate(112.24691358024693 14.222222222222223)"/><use xlink:href="#v" transform="matrix(1,0,0,1,1260.5,2986.086586944782) translate(154.56790123456793 14.222222222222223)"/><use xlink:href="#D" transform="matrix(1,0,0,1,1260.5,2986.086586944782) translate(176.19753086419755 14.222222222222223)"/><path d="M1250.05 3026.9l2.53 2.54.92 3.4v27.86l-.92 3.42-2.53 2.53-3.42.92H1231v-2h15.37l2.64-.7 1.8-1.8.7-2.63v-27.32l-.7-2.65-1.8-1.77-2.63-.72h-32.87v-2h33.13z" fill="#5e5e5e"/><path d="M1213.53 3027.98h-1.03v-2h1.03zM1230 3071.2l-14.26-4.63 14.26-4.63z" fill="#5e5e5e"/><path d="M1231 3072.58l-18.5-6 18.5-6.02zm-12.03-6l10.03 3.25v-6.52z" fill="#5e5e5e"/><use xlink:href="#E" transform="matrix(1,0,0,1,1260.5,3036.111200460577) translate(0 14.222222222222223)"/><use xlink:href="#F" transform="matrix(1,0,0,1,1260.5,3036.111200460577) translate(89.7283950617284 14.222222222222223)"/><use xlink:href="#G" transform="matrix(1,0,0,1,1260.5,3036.111200460577) translate(127.11111111111111 14.222222222222223)"/><path d="M1201 2906.5v9.17m0 9.16v18.34m0 9.16v9.17" stroke="#5e5e5e" stroke-width="2" fill="none"/><path d="M1202 2906.53h-2v-1.03h2zM1202 2962.5h-2v-1.03h2zM1257.1 3089.2h-43.6v-2h43.6zm281.08 0h-42.77v-2h42.78z" fill="#5e5e5e"/><path d="M1213.53 3089.2h-1.03v-2h1.03zM1540 3088.2l-18.67 11.04-1.02-1.72 15.77-9.32-15.76-9.32 1.03-1.72z" fill="#5e5e5e"/><use xlink:href="#t" transform="matrix(1,0,0,1,1257.0895061728395,3077.5324320074096) translate(0 14.222222222222223)"/><use xlink:href="#H" transform="matrix(1,0,0,1,1257.0895061728395,3077.5324320074096) translate(69.97530864197532 14.222222222222223)"/><use xlink:href="#I" transform="matrix(1,0,0,1,1257.0895061728395,3077.5324320074096) translate(91.60493827160495 14.222222222222223)"/><use xlink:href="#J" transform="matrix(1,0,0,1,1257.0895061728395,3077.5324320074096) translate(132.98765432098767 14.222222222222223)"/><use xlink:href="#K" transform="matrix(1,0,0,1,1257.0895061728395,3077.5324320074096) translate(180.24691358024694 14.222222222222223)"/><use xlink:href="#L" transform="matrix(1,0,0,1,1257.0895061728395,3077.5324320074096) translate(200.9382716049383 14.222222222222223)"/><path d="M160 1013.5c0-3.3 2.7-6 6-6h88c3.3 0 6 2.7 6 6v8c0 3.3-1.9 7.9-4.24 10.24l-1.52 1.52c-2.34 2.34-6.93 4.24-10.24 4.24h-78c-3.3 0-6-2.7-6-6z" fill="#fff"/><path d="M260 1007.5v20l-10 10h-90" stroke="#5e5e5e" stroke-width="3" fill="none"/><path d="M160 1013.5c0-3.3 2.7-6 6-6h1428c3.3 0 6 2.7 6 6V3194c0 3.3-2.7 6-6 6H166c-3.3 0-6-2.7-6-6z" stroke="#5e5e5e" stroke-width="3" fill="none"/><use xlink:href="#M" transform="matrix(1,0,0,1,168,1007.5000000000002) translate(0 19.444444444444443)"/><use xlink:href="#N" transform="matrix(1,0,0,1,172,1045.5000000000002) translate(0 19.444444444444443)"/><path d="M570 2648.68v10.2m0 10.18v20.38m0 10.2V2720m0 10.2v20.37m0 10.18v20.38m0 10.2v20.38m0 10.2v20.37m0 10.2v20.38m0 10.2v20.38m0 10.2v20.37m0 10.2v20.37m0 10.2v20.38m0 10.2v20.37m0 10.2v20.37m0 10.2v20.38m0 10.2v20.37m0 10.2v20.37m0 10.2v20.38m0 10.2V3199" stroke="#5e5e5e" stroke-width="2" fill="none"/><path d="M571 2648.7h-2v-1.02h2z" fill="#5e5e5e"/><path d="M570 3198.97v1.03M1201 3106.5v10.28m0 10.28v20.55m0 10.3v20.54m0 10.28V3199" stroke="#5e5e5e" stroke-width="2" fill="none"/><path d="M1202 3106.53h-2v-1.03h2z" fill="#5e5e5e"/><path d="M1201 3198.97v1.03" stroke="#5e5e5e" stroke-width="2" fill="none"/><path d="M820 706c0-3.3 2.7-6 6-6h128c3.3 0 6 2.7 6 6v68c0 3.3-2.7 6-6 6H826c-3.3 0-6-2.7-6-6z" stroke="#5e5e5e" stroke-width="3" fill="#fff"/><use xlink:href="#O" transform="matrix(1,0,0,1,832,712) translate(2.5987654320987588 31.77777777777778)"/><path d="M890 782.5v8.33m0 8.34v16.66m0 8.34v16.66m0 8.34v8.33" stroke="#5e5e5e" stroke-width="2" fill="none"/><path d="M891 782.53h-2v-1.03h2zM891 858.5h-2v-1.03h2z" fill="#5e5e5e"/><path d="M880 866c0-3.3 2.7-6 6-6h8c3.3 0 6 2.7 6 6v88c0 3.3-2.7 6-6 6h-8c-3.3 0-6-2.7-6-6zM1191 895.68c0-3.32 2.7-6 6-6h8c3.3 0 6 2.68 6 6v8c0 3.3-2.7 6-6 6h-8c-3.3 0-6-2.7-6-6z" stroke="#5e5e5e" stroke-width="3" fill="#fff"/><path d="M1007.24 895.13H902.5v-2h104.74zm180.8 0h-103.9v-2h103.9z" fill="#5e5e5e"/><path d="M902.53 895.13h-1.03v-2h1.03zM1189.86 894.13l-18.67 11.04-1.02-1.72 15.76-9.32-15.76-9.32 1-1.72z" fill="#5e5e5e"/><use xlink:href="#P" transform="matrix(1,0,0,1,1007.2384931108699,883.458964382416) translate(0 14.222222222222223)"/><path d="M560 926c0-3.3 2.7-6 6-6h8c3.3 0 6 2.7 6 6v8c0 3.3-2.7 6-6 6h-8c-3.3 0-6-2.7-6-6z" stroke="#5e5e5e" stroke-width="3" fill="#fff"/><path d="M691.56 932.97H583.32v-2h108.24zm185.94 0H768.44v-2H877.5z" fill="#5e5e5e"/><path d="M878.5 932.97h-1.03v-2h1.03zM601.2 922.65l-15.77 9.32 15.76 9.32-1.03 1.7-18.67-11.03 18.67-11.04z" fill="#5e5e5e"/><use xlink:href="#P" transform="matrix(1,0,0,1,691.5555555555555,921.3047192785072) translate(0 14.222222222222223)"/><path d="M920 1086c0-3.3 2.7-6 6-6h108c3.3 0 6 2.7 6 6v8c0 3.3-1.9 7.9-4.24 10.24l-1.52 1.52c-2.34 2.34-6.93 4.24-10.24 4.24h-98c-3.3 0-6-2.7-6-6z" fill="#fff"/><path d="M1040 1080v20l-10 10H920" stroke="#5e5e5e" stroke-width="3" fill="none"/><path d="M920 1086c0-3.3 2.7-6 6-6h308c3.3 0 6 2.7 6 6v168c0 3.3-2.7 6-6 6H926c-3.3 0-6-2.7-6-6z" stroke="#5e5e5e" stroke-width="3" fill="none"/><use xlink:href="#m" transform="matrix(1,0,0,1,928,1080) translate(0 19.444444444444443)"/><use xlink:href="#n" transform="matrix(1,0,0,1,932,1118) translate(0 19.444444444444443)"/><use xlink:href="#Q" transform="matrix(1,0,0,1,932,1118) translate(17.22222222222222 19.444444444444443)"/><path d="M260 1089c0-3.3 2.7-6 6-6h108c3.3 0 6 2.7 6 6v8c0 3.3-1.9 7.9-4.24 10.24l-1.52 1.52c-2.34 2.34-6.93 4.24-10.24 4.24h-98c-3.3 0-6-2.7-6-6z" fill="#fff"/><path d="M380 1083v20l-10 10H260" stroke="#5e5e5e" stroke-width="3" fill="none"/><path d="M260 1089c0-3.3 2.7-6 6-6h328c3.3 0 6 2.7 6 6v328c0 3.3-2.7 6-6 6H266c-3.3 0-6-2.7-6-6z" stroke="#5e5e5e" stroke-width="3" fill="none"/><use xlink:href="#m" transform="matrix(1,0,0,1,268,1083) translate(0 19.444444444444443)"/><use xlink:href="#n" transform="matrix(1,0,0,1,272,1121) translate(0 19.444444444444443)"/><use xlink:href="#Q" transform="matrix(1,0,0,1,272,1121) translate(17.22222222222222 19.444444444444443)"/><path d="M180 2330c0-3.3 2.7-6 6-6h108c3.3 0 6 2.7 6 6v8c0 3.3-1.9 7.9-4.24 10.24l-1.52 1.52c-2.34 2.34-6.93 4.24-10.24 4.24h-98c-3.3 0-6-2.7-6-6z" fill="#fff"/><path d="M300 2324v20l-10 10H180" stroke="#5e5e5e" stroke-width="3" fill="none"/><path d="M180 2330c0-3.3 2.7-6 6-6h1068c3.3 0 6 2.7 6 6v348c0 3.3-2.7 6-6 6H186c-3.3 0-6-2.7-6-6z" stroke="#5e5e5e" stroke-width="3" fill="none"/><use xlink:href="#m" transform="matrix(1,0,0,1,188,2324) translate(0 19.444444444444443)"/><use xlink:href="#n" transform="matrix(1,0,0,1,192,2362) translate(0 19.444444444444443)"/><use xlink:href="#R" transform="matrix(1,0,0,1,192,2362) translate(17.22222222222222 19.444444444444443)"/><path d="M840 2702.5c0-3.3 2.7-6 6-6h108c3.3 0 6 2.7 6 6v8c0 3.3-1.9 7.9-4.24 10.24l-1.52 1.52c-2.34 2.34-6.93 4.24-10.24 4.24h-98c-3.3 0-6-2.7-6-6z" fill="#fff"/><path d="M960 2696.5v20l-10 10H840" stroke="#5e5e5e" stroke-width="3" fill="none"/><path d="M840 2702.5c0-3.3 2.7-6 6-6h728c3.3 0 6 2.7 6 6V3158c0 3.3-2.7 6-6 6H846c-3.3 0-6-2.7-6-6z" stroke="#5e5e5e" stroke-width="3" fill="none"/><use xlink:href="#m" transform="matrix(1,0,0,1,848,2696.5) translate(0 19.444444444444443)"/><use xlink:href="#n" transform="matrix(1,0,0,1,852,2734.5) translate(0 19.444444444444443)"/><use xlink:href="#R" transform="matrix(1,0,0,1,852,2734.5) translate(17.22222222222222 19.444444444444443)"/><path d="M560 1606c0-3.3 2.7-6 6-6h8c3.3 0 6 2.7 6 6v128c0 3.3-2.7 6-6 6h-8c-3.3 0-6-2.7-6-6zM560 1878.5c0-3.3 2.7-6 6-6h8c3.3 0 6 2.7 6 6V2054c0 3.3-2.7 6-6 6h-8c-3.3 0-6-2.7-6-6zM560 1773.17c0-3.32 2.7-6 6-6h8c3.3 0 6 2.68 6 6v14.05c0 3.32-2.7 6-6 6h-8c-3.3 0-6-2.68-6-6z" stroke="#5e5e5e" stroke-width="3" fill="#fff"/><path d="M570 1742.5v7.4m0 7.38v7.4" stroke="#5e5e5e" stroke-width="2" fill="none"/><path d="M571 1742.53h-2v-1.03h2zM571 1765.67h-2v-1.03h2z" fill="#5e5e5e"/><path d="M570 1870v-12.38m0-12.38v-24.76m0-12.38v-12.38" stroke="#5e5e5e" stroke-width="2" fill="none"/><path d="M571 1871h-2v-1.03h2zM571 1795.75h-2v-1.03h2z" fill="#5e5e5e"/><path d="M557.5 1613.8h-33c-3.3 0-6 2.68-6 6v34.95c0 3.32 2.7 6 6 6H540" stroke="#5e5e5e" stroke-width="2" fill="none"/><path d="M558.5 1614.8h-1.03v-2h1.03z" fill="#5e5e5e"/><path d="M555.26 1660.75L541 1665.4v-9.28z" stroke="#5e5e5e" stroke-width="2" fill="#5e5e5e"/><g><use xlink:href="#k" transform="matrix(1,0,0,1,406.1049382716049,1626.606219943735) translate(0 14.222222222222223)"/><use xlink:href="#s" transform="matrix(1,0,0,1,406.1049382716049,1626.606219943735) translate(63.01234567901235 14.222222222222223)"/></g><path d="M557.5 1682.96h-33c-3.3 0-6 2.7-6 6v39.24c0 3.3 2.7 6 6 6H540" stroke="#5e5e5e" stroke-width="2" fill="none"/><path d="M558.5 1683.96h-1.03v-2h1.03z" fill="#5e5e5e"/><path d="M555.26 1734.2l-14.26 4.63v-9.27z" stroke="#5e5e5e" stroke-width="2" fill="#5e5e5e"/><g><use xlink:href="#q" transform="matrix(1,0,0,1,347.7345679012345,1697.9153116108623) translate(0 14.222222222222223)"/><use xlink:href="#r" transform="matrix(1,0,0,1,347.7345679012345,1697.9153116108623) translate(86.76543209876544 14.222222222222223)"/></g><path d="M557.5 1892.67h-33c-3.3 0-6 2.7-6 6v35.9c0 3.32 2.7 6 6 6H540" stroke="#5e5e5e" stroke-width="2" fill="none"/><path d="M558.5 1893.67h-1.03v-2h1.03z" fill="#5e5e5e"/><path d="M555.26 1940.57L541 1945.2v-9.26z" stroke="#5e5e5e" stroke-width="2" fill="#5e5e5e"/><g><use xlink:href="#k" transform="matrix(1,0,0,1,406.1049382716049,1905.9543758770974) translate(0 14.222222222222223)"/><use xlink:href="#s" transform="matrix(1,0,0,1,406.1049382716049,1905.9543758770974) translate(63.01234567901235 14.222222222222223)"/></g><path d="M660 1306c0-3.3 2.7-6 6-6h113c3.3 0 6 2.7 6 6v8c0 3.3-1.9 7.9-4.24 10.24l-1.52 1.52c-2.34 2.34-6.93 4.24-10.24 4.24H666c-3.3 0-6-2.7-6-6z" fill="#fff"/><path d="M785 1300v20l-10 10H660" stroke="#5e5e5e" stroke-width="3" fill="none"/><path d="M660 1306c0-3.3 2.7-6 6-6h588c3.3 0 6 2.7 6 6v728c0 3.3-2.7 6-6 6H666c-3.3 0-6-2.7-6-6zM660 1925h20m15 0h20m15 0h20m15 0h20m15 0h20m15 0h20m15 0h20m15 0h20m15 0h20m15 0h20m15 0h20m15 0h20m15 0h20m15 0h20m15 0h20m15 0h20m15 0h20m15 0h5" stroke="#5e5e5e" stroke-width="3" fill="none"/><g><use xlink:href="#m" transform="matrix(1,0,0,1,668,1300) translate(0 19.444444444444443)"/></g><g><use xlink:href="#n" transform="matrix(1,0,0,1,672,1338) translate(0 17.77777777777778)"/><use xlink:href="#S" transform="matrix(1,0,0,1,672,1338) translate(17.22222222222222 17.77777777777778)"/><use xlink:href="#T" transform="matrix(1,0,0,1,672,1338) translate(0 44.44444444444444)"/><use xlink:href="#U" transform="matrix(1,0,0,1,672,1338) translate(12.345679012345679 44.44444444444444)"/><use xlink:href="#V" transform="matrix(1,0,0,1,672,1338) translate(48.148148148148145 44.44444444444444)"/></g><g><use xlink:href="#p" transform="matrix(1,0,0,1,672,1933) translate(0 19.444444444444443)"/></g><path d="M1191 1946c0-3.3 2.7-6 6-6h8c3.3 0 6 2.7 6 6v73c0 3.3-2.7 6-6 6h-8c-3.3 0-6-2.7-6-6z" stroke="#5e5e5e" stroke-width="3" fill="#fff"/><path d="M1188.5 1955.9h-33c-3.3 0-6 2.67-6 6v33.97c0 3.3 2.7 6 6 6h15.5" stroke="#5e5e5e" stroke-width="2" fill="none"/><path d="M1189.5 1956.9h-1.03v-2h1.03z" fill="#5e5e5e"/><path d="M1186.26 2001.87l-14.26 4.63v-9.27z" stroke="#5e5e5e" stroke-width="2" fill="#5e5e5e"/><g><use xlink:href="#W" transform="matrix(1,0,0,1,978.7345679012346,1968.2103544716986) translate(0 14.222222222222223)"/><use xlink:href="#r" transform="matrix(1,0,0,1,978.7345679012346,1968.2103544716986) translate(86.76543209876544 14.222222222222223)"/></g><path d="M200 1442.97c0-3.3 2.7-6 6-6h113c3.3 0 6 2.7 6 6v8c0 3.32-1.9 7.9-4.24 10.24l-1.52 1.53c-2.34 2.34-6.93 4.24-10.24 4.24H206c-3.3 0-6-2.68-6-6z" fill="#fff"/><path d="M325 1436.97v20l-10 10H200" stroke="#5e5e5e" stroke-width="3" fill="none"/><path d="M200 1442.97c0-3.3 2.7-6 6-6h428c3.3 0 6 2.7 6 6V2214c0 3.3-2.7 6-6 6H206c-3.3 0-6-2.7-6-6zM200 2098.3h20m15 0h20m15 0h20m15 0h20m15 0h20m15 0h20m15 0h20m15 0h20m15 0h20m15 0h20m15 0h20m15 0h20m15 0h20" stroke="#5e5e5e" stroke-width="3" fill="none"/><g><use xlink:href="#m" transform="matrix(1,0,0,1,208,1436.9718661973097) translate(0 19.444444444444443)"/></g><g><use xlink:href="#n" transform="matrix(1,0,0,1,212,1474.9718661973097) translate(0 17.77777777777778)"/><use xlink:href="#S" transform="matrix(1,0,0,1,212,1474.9718661973097) translate(17.22222222222222 17.77777777777778)"/><use xlink:href="#T" transform="matrix(1,0,0,1,212,1474.9718661973097) translate(0 44.44444444444444)"/><use xlink:href="#U" transform="matrix(1,0,0,1,212,1474.9718661973097) translate(12.345679012345679 44.44444444444444)"/><use xlink:href="#V" transform="matrix(1,0,0,1,212,1474.9718661973097) translate(48.148148148148145 44.44444444444444)"/></g><g><use xlink:href="#p" transform="matrix(1,0,0,1,212,2106.313195422555) translate(0 19.444444444444443)"/></g><path d="M561.5 2126c0-3.3 2.7-6 6-6h8c3.3 0 6 2.7 6 6v73c0 3.3-2.7 6-6 6h-8c-3.3 0-6-2.7-6-6z" stroke="#5e5e5e" stroke-width="3" fill="#fff"/><path d="M559 2135.9h-33c-3.3 0-6 2.67-6 6v33.97c0 3.3 2.7 6 6 6h15.5" stroke="#5e5e5e" stroke-width="2" fill="none"/><path d="M560 2136.9h-1.03v-2H560z" fill="#5e5e5e"/><path d="M556.76 2181.87l-14.26 4.63v-9.27z" stroke="#5e5e5e" stroke-width="2" fill="#5e5e5e"/><g><use xlink:href="#W" transform="matrix(1,0,0,1,349.2345679012345,2148.210354471699) translate(0 14.222222222222223)"/><use xlink:href="#r" transform="matrix(1,0,0,1,349.2345679012345,2148.210354471699) translate(86.76543209876544 14.222222222222223)"/></g><path d="M557.5 2010.56h-259" stroke="#5e5e5e" stroke-width="2" fill="none"/><path d="M558.5 2011.56h-1.03v-2h1.03z" fill="#5e5e5e"/><path d="M283.24 2010.56l14.26-4.63v9.27z" stroke="#5e5e5e" stroke-width="2" fill="#5e5e5e"/><g><use xlink:href="#t" transform="matrix(1,0,0,1,290.1024527932207,1985.2305726019097) translate(0 14.222222222222223)"/><use xlink:href="#u" transform="matrix(1,0,0,1,290.1024527932207,1985.2305726019097) translate(69.97530864197532 14.222222222222223)"/><use xlink:href="#v" transform="matrix(1,0,0,1,290.1024527932207,1985.2305726019097) translate(150.9135802469136 14.222222222222223)"/><use xlink:href="#w" transform="matrix(1,0,0,1,290.1024527932207,1985.2305726019097) translate(172.54320987654322 14.222222222222223)"/></g><path d="M1191 1666c0-3.3 2.7-6 6-6h8c3.3 0 6 2.7 6 6v150.7c0 3.3-2.7 6-6 6h-8c-3.3 0-6-2.7-6-6zM1191 1429c0-3.3 2.7-6 6-6h8c3.3 0 6 2.7 6 6v185c0 3.3-2.7 6-6 6h-8c-3.3 0-6-2.7-6-6z" stroke="#5e5e5e" stroke-width="3" fill="#fff"/><path d="M1188.5 1443.74h-33c-3.3 0-6 2.68-6 6v59.05c0 3.3 2.7 6 6 6h15.5" stroke="#5e5e5e" stroke-width="2" fill="none"/><path d="M1189.5 1444.74h-1.03v-2h1.03z" fill="#5e5e5e"/><path d="M1186.26 1514.8l-14.26 4.62v-9.27z" stroke="#5e5e5e" stroke-width="2" fill="#5e5e5e"/><g><use xlink:href="#k" transform="matrix(1,0,0,1,1037.104938271605,1468.595228537314) translate(0 14.222222222222223)"/><use xlink:href="#s" transform="matrix(1,0,0,1,1037.104938271605,1468.595228537314) translate(63.01234567901235 14.222222222222223)"/></g><defs><path fill="#333" d="M233-177c-1 41-23 64-60 70L243 0h-38l-65-103H63V0H30v-248c88 3 205-21 203 71zM63-129c60-2 137 13 137-47 0-61-80-42-137-45v92" id="X"/><path fill="#333" d="M100-194c62-1 85 37 85 99 1 63-27 99-86 99S16-35 15-95c0-66 28-99 85-99zM99-20c44 1 53-31 53-75 0-43-8-75-51-75s-53 32-53 75 10 74 51 75" id="Y"/><path fill="#333" d="M84 4C-5 8 30-112 23-190h32v120c0 31 7 50 39 49 72-2 45-101 50-169h31l1 190h-30c-1-10 1-25-2-33-11 22-28 36-60 37" id="Z"/><path fill="#333" d="M59-47c-2 24 18 29 38 22v24C64 9 27 4 27-40v-127H5v-23h24l9-43h21v43h35v23H59v120" id="aa"/><path fill="#333" d="M100-194c63 0 86 42 84 106H49c0 40 14 67 53 68 26 1 43-12 49-29l28 8c-11 28-37 45-77 45C44 4 14-33 15-96c1-61 26-98 85-98zm52 81c6-60-76-77-97-28-3 7-6 17-6 28h103" id="ab"/><path fill="#333" d="M114-163C36-179 61-72 57 0H25l-1-190h30c1 12-1 29 2 39 6-27 23-49 58-41v29" id="ac"/><g id="a"><use transform="matrix(0.06172839506172839,0,0,0.06172839506172839,0,0)" xlink:href="#X"/><use transform="matrix(0.06172839506172839,0,0,0.06172839506172839,15.987654320987653,0)" xlink:href="#Y"/><use transform="matrix(0.06172839506172839,0,0,0.06172839506172839,28.333333333333332,0)" xlink:href="#Z"/><use transform="matrix(0.06172839506172839,0,0,0.06172839506172839,40.67901234567901,0)" xlink:href="#aa"/><use transform="matrix(0.06172839506172839,0,0,0.06172839506172839,46.851851851851855,0)" xlink:href="#ab"/><use transform="matrix(0.06172839506172839,0,0,0.06172839506172839,59.19753086419753,0)" xlink:href="#ac"/></g><path fill="#333" d="M205 0l-28-72H64L36 0H1l101-248h38L239 0h-34zm-38-99l-47-123c-12 45-31 82-46 123h93" id="ad"/><use transform="matrix(0.06172839506172839,0,0,0.06172839506172839,0,0)" xlink:href="#ad" id="b"/><path fill="#333" d="M160-131c35 5 61 23 61 61C221 17 115-2 30 0v-248c76 3 177-17 177 60 0 33-19 50-47 57zm-97-11c50-1 110 9 110-42 0-47-63-36-110-37v79zm0 115c55-2 124 14 124-45 0-56-70-42-124-44v89" id="ae"/><use transform="matrix(0.06172839506172839,0,0,0.06172839506172839,0,0)" xlink:href="#ae" id="c"/><path fill="#333" d="M15-91v-56l181-69v40L49-119l147 57v40" id="af"/><path fill="#333" d="M175 0L67-191c6 58 2 128 3 191H24v-248h59L193-55c-6-58-2-129-3-193h46V0h-61" id="ag"/><path fill="#333" d="M185-48c-13 30-37 53-82 52C43 2 14-33 14-96s30-98 90-98c62 0 83 45 84 108H66c0 31 8 55 39 56 18 0 30-7 34-22zm-45-69c5-46-57-63-70-21-2 6-4 13-4 21h74" id="ah"/><path fill="#333" d="M25-224v-37h50v37H25zM25 0v-190h50V0H25" id="ai"/><path fill="#333" d="M195-6C206 82 75 100 31 46c-4-6-6-13-8-21l49-6c3 16 16 24 34 25 40 0 42-37 40-79-11 22-30 35-61 35-53 0-70-43-70-97 0-56 18-96 73-97 30 0 46 14 59 34l2-30h47zm-90-29c32 0 41-27 41-63 0-35-9-62-40-62-32 0-39 29-40 63 0 36 9 62 39 62" id="aj"/><path fill="#333" d="M114-157C55-157 80-60 75 0H25v-261h50l-1 109c12-26 28-41 61-42 86-1 58 113 63 194h-50c-7-57 23-157-34-157" id="ak"/><path fill="#333" d="M135-194c52 0 70 43 70 98 0 56-19 99-73 100-30 1-46-15-58-35L72 0H24l1-261h50v104c11-23 29-37 60-37zM114-30c31 0 40-27 40-66 0-37-7-63-39-63s-41 28-41 65c0 36 8 64 40 64" id="al"/><path fill="#333" d="M110-194c64 0 96 36 96 99 0 64-35 99-97 99-61 0-95-36-95-99 0-62 34-99 96-99zm-1 164c35 0 45-28 45-65 0-40-10-65-43-65-34 0-45 26-45 65 0 36 10 65 43 65" id="am"/><path fill="#333" d="M85 4C-2 5 27-109 22-190h50c7 57-23 150 33 157 60-5 35-97 40-157h50l1 190h-47c-2-12 1-28-3-38-12 25-28 42-61 42" id="an"/><path fill="#333" d="M135-150c-39-12-60 13-60 57V0H25l-1-190h47c2 13-1 29 3 40 6-28 27-53 61-41v41" id="ao"/><path fill="#333" d="M238-95c0 69-44 99-111 99C63 4 22-25 22-93v-155h51v151c-1 38 19 59 55 60 90 1 49-130 58-211h52v153" id="ap"/><path fill="#333" d="M135-194c53 0 70 44 70 98 0 56-19 98-73 100-31 1-45-17-59-34 3 33 2 69 2 105H25l-1-265h48c2 10 0 23 3 31 11-24 29-35 60-35zM114-30c33 0 39-31 40-66 0-38-9-64-40-64-56 0-55 130 0 130" id="aq"/><path fill="#333" d="M88-194c31-1 46 15 58 34l-1-101h50l1 261h-48c-2-10 0-23-3-31C134-8 116 4 84 4 32 4 16-41 15-95c0-56 19-97 73-99zm17 164c33 0 40-30 41-66 1-37-9-64-41-64s-38 30-39 65c0 43 13 65 39 65" id="ar"/><path fill="#333" d="M133-34C117-15 103 5 69 4 32 3 11-16 11-54c-1-60 55-63 116-61 1-26-3-47-28-47-18 1-26 9-28 27l-52-2c7-38 36-58 82-57s74 22 75 68l1 82c-1 14 12 18 25 15v27c-30 8-71 5-69-32zm-48 3c29 0 43-24 42-57-32 0-66-3-65 30 0 17 8 27 23 27" id="as"/><path fill="#333" d="M115-3C79 11 28 4 28-45v-112H4v-33h27l15-45h31v45h36v33H77v99c-1 23 16 31 38 25v30" id="at"/><path fill="#333" d="M15-22v-40l146-57-146-57v-40l181 69v56" id="au"/><g id="d"><use transform="matrix(0.04938271604938272,0,0,0.04938271604938272,0,0)" xlink:href="#af"/><use transform="matrix(0.04938271604938272,0,0,0.04938271604938272,10.370370370370372,0)" xlink:href="#af"/><use transform="matrix(0.04938271604938272,0,0,0.04938271604938272,20.740740740740744,0)" xlink:href="#ag"/><use transform="matrix(0.04938271604938272,0,0,0.04938271604938272,33.53086419753087,0)" xlink:href="#ah"/><use transform="matrix(0.04938271604938272,0,0,0.04938271604938272,43.40740740740741,0)" xlink:href="#ai"/><use transform="matrix(0.04938271604938272,0,0,0.04938271604938272,48.345679012345684,0)" xlink:href="#aj"/><use transform="matrix(0.04938271604938272,0,0,0.04938271604938272,59.1604938271605,0)" xlink:href="#ak"/><use transform="matrix(0.04938271604938272,0,0,0.04938271604938272,69.97530864197532,0)" xlink:href="#al"/><use transform="matrix(0.04938271604938272,0,0,0.04938271604938272,80.79012345679013,0)" xlink:href="#am"/><use transform="matrix(0.04938271604938272,0,0,0.04938271604938272,91.60493827160494,0)" xlink:href="#an"/><use transform="matrix(0.04938271604938272,0,0,0.04938271604938272,102.41975308641975,0)" xlink:href="#ao"/><use transform="matrix(0.04938271604938272,0,0,0.04938271604938272,109.33333333333331,0)" xlink:href="#ap"/><use transform="matrix(0.04938271604938272,0,0,0.04938271604938272,122.12345679012344,0)" xlink:href="#aq"/><use transform="matrix(0.04938271604938272,0,0,0.04938271604938272,132.93827160493828,0)" xlink:href="#ar"/><use transform="matrix(0.04938271604938272,0,0,0.04938271604938272,143.7530864197531,0)" xlink:href="#as"/><use transform="matrix(0.04938271604938272,0,0,0.04938271604938272,153.62962962962962,0)" xlink:href="#at"/><use transform="matrix(0.04938271604938272,0,0,0.04938271604938272,159.50617283950615,0)" xlink:href="#ah"/><use transform="matrix(0.04938271604938272,0,0,0.04938271604938272,169.38271604938268,0)" xlink:href="#au"/><use transform="matrix(0.04938271604938272,0,0,0.04938271604938272,179.75308641975306,0)" xlink:href="#au"/></g><path fill="#333" d="M24-248c93 1 206-16 204 79-1 75-69 88-152 82V0H24v-248zm52 121c47 0 100 7 100-41 0-47-54-39-100-39v80" id="av"/><path fill="#333" d="M230 0l2-204L168 0h-37L68-204 70 0H24v-248h70l56 185 57-185h69V0h-46" id="aw"/><path fill="#333" d="M137-138c1-29-70-34-71-4 15 46 118 7 119 86 1 83-164 76-172 9l43-7c4 19 20 25 44 25 33 8 57-30 24-41C81-84 22-81 20-136c-2-80 154-74 161-7" id="ax"/><g id="e"><use transform="matrix(0.04938271604938272,0,0,0.04938271604938272,0,0)" xlink:href="#af"/><use transform="matrix(0.04938271604938272,0,0,0.04938271604938272,10.370370370370372,0)" xlink:href="#af"/><use transform="matrix(0.04938271604938272,0,0,0.04938271604938272,20.740740740740744,0)" xlink:href="#av"/><use transform="matrix(0.04938271604938272,0,0,0.04938271604938272,32.592592592592595,0)" xlink:href="#as"/><use transform="matrix(0.04938271604938272,0,0,0.04938271604938272,42.46913580246914,0)" xlink:href="#at"/><use transform="matrix(0.04938271604938272,0,0,0.04938271604938272,48.345679012345684,0)" xlink:href="#ak"/><use transform="matrix(0.04938271604938272,0,0,0.04938271604938272,59.1604938271605,0)" xlink:href="#aw"/><use transform="matrix(0.04938271604938272,0,0,0.04938271604938272,73.92592592592594,0)" xlink:href="#ax"/><use transform="matrix(0.04938271604938272,0,0,0.04938271604938272,83.80246913580248,0)" xlink:href="#aj"/><use transform="matrix(0.04938271604938272,0,0,0.04938271604938272,94.61728395061729,0)" xlink:href="#au"/><use transform="matrix(0.04938271604938272,0,0,0.04938271604938272,104.98765432098766,0)" xlink:href="#au"/></g><path fill="#333" d="M67-125c0 53 21 87 73 88 37 1 54-22 65-47l45 17C233-25 199 4 140 4 58 4 20-42 15-125 8-235 124-281 211-232c18 10 29 29 36 50l-46 12c-8-25-30-41-62-41-52 0-71 34-72 86" id="ay"/><g id="f"><use transform="matrix(0.04938271604938272,0,0,0.04938271604938272,0,0)" xlink:href="#ay"/><use transform="matrix(0.04938271604938272,0,0,0.04938271604938272,12.790123456790125,0)" xlink:href="#ao"/><use transform="matrix(0.04938271604938272,0,0,0.04938271604938272,19.703703703703706,0)" xlink:href="#ah"/><use transform="matrix(0.04938271604938272,0,0,0.04938271604938272,29.58024691358025,0)" xlink:href="#as"/><use transform="matrix(0.04938271604938272,0,0,0.04938271604938272,39.4567901234568,0)" xlink:href="#at"/><use transform="matrix(0.04938271604938272,0,0,0.04938271604938272,45.33333333333334,0)" xlink:href="#ah"/></g><path fill="#333" d="M135-194c87-1 58 113 63 194h-50c-7-57 23-157-34-157-59 0-34 97-39 157H25l-1-190h47c2 12-1 28 3 38 12-26 28-41 61-42" id="az"/><g id="g"><use transform="matrix(0.04938271604938272,0,0,0.04938271604938272,0,0)" xlink:href="#ao"/><use transform="matrix(0.04938271604938272,0,0,0.04938271604938272,6.913580246913581,0)" xlink:href="#am"/><use transform="matrix(0.04938271604938272,0,0,0.04938271604938272,17.728395061728396,0)" xlink:href="#an"/><use transform="matrix(0.04938271604938272,0,0,0.04938271604938272,28.543209876543205,0)" xlink:href="#at"/><use transform="matrix(0.04938271604938272,0,0,0.04938271604938272,34.41975308641975,0)" xlink:href="#ai"/><use transform="matrix(0.04938271604938272,0,0,0.04938271604938272,39.358024691358025,0)" xlink:href="#az"/><use transform="matrix(0.04938271604938272,0,0,0.04938271604938272,50.17283950617284,0)" xlink:href="#aj"/></g><path fill="#333" d="M25 0v-261h50V0H25" id="aA"/><g id="h"><use transform="matrix(0.04938271604938272,0,0,0.04938271604938272,0,0)" xlink:href="#at"/><use transform="matrix(0.04938271604938272,0,0,0.04938271604938272,5.8765432098765435,0)" xlink:href="#as"/><use transform="matrix(0.04938271604938272,0,0,0.04938271604938272,15.753086419753087,0)" xlink:href="#al"/><use transform="matrix(0.04938271604938272,0,0,0.04938271604938272,26.567901234567902,0)" xlink:href="#aA"/><use transform="matrix(0.04938271604938272,0,0,0.04938271604938272,31.506172839506174,0)" xlink:href="#ah"/></g><path fill="#333" d="M240-174c0 40-23 61-54 70L253 0h-59l-57-94H76V0H24v-248c93 4 217-23 216 74zM76-134c48-2 112 12 112-38 0-48-66-32-112-35v73" id="aB"/><path fill="#333" d="M24 0v-248h52V0H24" id="aC"/><path fill="#333" d="M14-72v-43h91v43H14" id="aD"/><g id="i"><use transform="matrix(0.04938271604938272,0,0,0.04938271604938272,0,0)" xlink:href="#aB"/><use transform="matrix(0.04938271604938272,0,0,0.04938271604938272,12.790123456790125,0)" xlink:href="#am"/><use transform="matrix(0.04938271604938272,0,0,0.04938271604938272,23.60493827160494,0)" xlink:href="#an"/><use transform="matrix(0.04938271604938272,0,0,0.04938271604938272,34.41975308641975,0)" xlink:href="#at"/><use transform="matrix(0.04938271604938272,0,0,0.04938271604938272,40.2962962962963,0)" xlink:href="#ah"/><use transform="matrix(0.04938271604938272,0,0,0.04938271604938272,50.17283950617284,0)" xlink:href="#ao"/><use transform="matrix(0.04938271604938272,0,0,0.04938271604938272,57.086419753086425,0)" xlink:href="#aC"/><use transform="matrix(0.04938271604938272,0,0,0.04938271604938272,62.0246913580247,0)" xlink:href="#ar"/><use transform="matrix(0.04938271604938272,0,0,0.04938271604938272,72.8395061728395,0)" xlink:href="#aD"/><use transform="matrix(0.04938271604938272,0,0,0.04938271604938272,78.71604938271605,0)" xlink:href="#ay"/><use transform="matrix(0.04938271604938272,0,0,0.04938271604938272,91.50617283950618,0)" xlink:href="#ak"/><use transform="matrix(0.04938271604938272,0,0,0.04938271604938272,102.320987654321,0)" xlink:href="#as"/><use transform="matrix(0.04938271604938272,0,0,0.04938271604938272,112.19753086419755,0)" xlink:href="#az"/><use transform="matrix(0.04938271604938272,0,0,0.04938271604938272,123.01234567901233,0)" xlink:href="#az"/><use transform="matrix(0.04938271604938272,0,0,0.04938271604938272,133.82716049382717,0)" xlink:href="#ah"/><use transform="matrix(0.04938271604938272,0,0,0.04938271604938272,143.7037037037037,0)" xlink:href="#aA"/></g><path fill="#333" d="M220-157c-53 9-28 100-34 157h-49v-107c1-27-5-49-29-50C55-147 81-57 75 0H25l-1-190h47c2 12-1 28 3 38 10-53 101-56 108 0 13-22 24-43 59-42 82 1 51 116 57 194h-49v-107c-1-25-5-48-29-50" id="aE"/><g id="j"><use transform="matrix(0.04938271604938272,0,0,0.04938271604938272,0,0)" xlink:href="#aE"/><use transform="matrix(0.04938271604938272,0,0,0.04938271604938272,15.80246913580247,0)" xlink:href="#as"/><use transform="matrix(0.04938271604938272,0,0,0.04938271604938272,25.679012345679016,0)" xlink:href="#aq"/><use transform="matrix(0.04938271604938272,0,0,0.04938271604938272,36.49382716049383,0)" xlink:href="#aq"/><use transform="matrix(0.04938271604938272,0,0,0.04938271604938272,47.308641975308646,0)" xlink:href="#ah"/><use transform="matrix(0.04938271604938272,0,0,0.04938271604938272,57.18518518518519,0)" xlink:href="#ao"/></g><g id="k"><use transform="matrix(0.04938271604938272,0,0,0.04938271604938272,0,0)" xlink:href="#an"/><use transform="matrix(0.04938271604938272,0,0,0.04938271604938272,10.814814814814815,0)" xlink:href="#aq"/><use transform="matrix(0.04938271604938272,0,0,0.04938271604938272,21.62962962962963,0)" xlink:href="#ar"/><use transform="matrix(0.04938271604938272,0,0,0.04938271604938272,32.44444444444444,0)" xlink:href="#as"/><use transform="matrix(0.04938271604938272,0,0,0.04938271604938272,42.32098765432099,0)" xlink:href="#at"/><use transform="matrix(0.04938271604938272,0,0,0.04938271604938272,48.19753086419753,0)" xlink:href="#ah"/></g><path fill="#333" d="M190-63c-7 42-38 67-86 67-59 0-84-38-90-98-12-110 154-137 174-36l-49 2c-2-19-15-32-35-32-30 0-35 28-38 64-6 74 65 87 74 30" id="aF"/><g id="l"><use transform="matrix(0.04938271604938272,0,0,0.04938271604938272,0,0)" xlink:href="#aF"/><use transform="matrix(0.04938271604938272,0,0,0.04938271604938272,9.876543209876544,0)" xlink:href="#ak"/><use transform="matrix(0.04938271604938272,0,0,0.04938271604938272,20.69135802469136,0)" xlink:href="#as"/><use transform="matrix(0.04938271604938272,0,0,0.04938271604938272,30.567901234567906,0)" xlink:href="#az"/><use transform="matrix(0.04938271604938272,0,0,0.04938271604938272,41.38271604938272,0)" xlink:href="#az"/><use transform="matrix(0.04938271604938272,0,0,0.04938271604938272,52.19753086419754,0)" xlink:href="#ah"/><use transform="matrix(0.04938271604938272,0,0,0.04938271604938272,62.074074074074076,0)" xlink:href="#aA"/></g><path fill="#333" d="M24 0v-261h32V0H24" id="aG"/><path fill="#333" d="M117-194c89-4 53 116 60 194h-32v-121c0-31-8-49-39-48C34-167 62-67 57 0H25l-1-190h30c1 10-1 24 2 32 11-22 29-35 61-36" id="aH"/><path fill="#333" d="M141-36C126-15 110 5 73 4 37 3 15-17 15-53c-1-64 63-63 125-63 3-35-9-54-41-54-24 1-41 7-42 31l-33-3c5-37 33-52 76-52 45 0 72 20 72 64v82c-1 20 7 32 28 27v20c-31 9-61-2-59-35zM48-53c0 20 12 33 32 33 41-3 63-29 60-74-43 2-92-5-92 41" id="aI"/><path fill="#333" d="M24-231v-30h32v30H24zM24 0v-190h32V0H24" id="aJ"/><path fill="#333" d="M108 0H70L1-190h34L89-25l56-165h34" id="aK"/><g id="m"><use transform="matrix(0.06172839506172839,0,0,0.06172839506172839,0,0)" xlink:href="#ad"/><use transform="matrix(0.06172839506172839,0,0,0.06172839506172839,14.814814814814813,0)" xlink:href="#aG"/><use transform="matrix(0.06172839506172839,0,0,0.06172839506172839,19.691358024691354,0)" xlink:href="#aa"/><use transform="matrix(0.06172839506172839,0,0,0.06172839506172839,25.864197530864192,0)" xlink:href="#ab"/><use transform="matrix(0.06172839506172839,0,0,0.06172839506172839,38.20987654320987,0)" xlink:href="#ac"/><use transform="matrix(0.06172839506172839,0,0,0.06172839506172839,45.55555555555555,0)" xlink:href="#aH"/><use transform="matrix(0.06172839506172839,0,0,0.06172839506172839,57.90123456790123,0)" xlink:href="#aI"/><use transform="matrix(0.06172839506172839,0,0,0.06172839506172839,70.24691358024691,0)" xlink:href="#aa"/><use transform="matrix(0.06172839506172839,0,0,0.06172839506172839,76.41975308641975,0)" xlink:href="#aJ"/><use transform="matrix(0.06172839506172839,0,0,0.06172839506172839,81.29629629629629,0)" xlink:href="#aK"/><use transform="matrix(0.06172839506172839,0,0,0.06172839506172839,92.4074074074074,0)" xlink:href="#ab"/></g><path fill="#333" d="M101-234c-31-9-42 10-38 44h38v23H63V0H32v-167H5v-23h27c-7-52 17-82 69-68v24" id="aL"/><g id="n"><use transform="matrix(0.06172839506172839,0,0,0.06172839506172839,0,0)" xlink:href="#aJ"/><use transform="matrix(0.06172839506172839,0,0,0.06172839506172839,4.876543209876543,0)" xlink:href="#aL"/></g><path fill="#333" d="M115-194c55 1 70 41 70 98S169 2 115 4C84 4 66-9 55-30l1 105H24l-1-265h31l2 30c10-21 28-34 59-34zm-8 174c40 0 45-34 45-75s-6-73-45-74c-42 0-51 32-51 76 0 43 10 73 51 73" id="aM"/><path fill="#333" d="M106-169C34-169 62-67 57 0H25v-261h32l-1 103c12-21 28-36 61-36 89 0 53 116 60 194h-32v-121c2-32-8-49-39-48" id="aN"/><path fill="#333" d="M212-179c-10-28-35-45-73-45-59 0-87 40-87 99 0 60 29 101 89 101 43 0 62-24 78-52l27 14C228-24 195 4 139 4 59 4 22-46 18-125c-6-104 99-153 187-111 19 9 31 26 39 46" id="aO"/><path fill="#333" d="M135-143c-3-34-86-38-87 0 15 53 115 12 119 90S17 21 10-45l28-5c4 36 97 45 98 0-10-56-113-15-118-90-4-57 82-63 122-42 12 7 21 19 24 35" id="aP"/><path fill="#333" d="M185-189c-5-48-123-54-124 2 14 75 158 14 163 119 3 78-121 87-175 55-17-10-28-26-33-46l33-7c5 56 141 63 141-1 0-78-155-14-162-118-5-82 145-84 179-34 5 7 8 16 11 25" id="aQ"/><path fill="#333" d="M87 75C49 33 22-17 22-94c0-76 28-126 65-167h31c-38 41-64 92-64 168S80 34 118 75H87" id="aR"/><path fill="#333" d="M33-261c38 41 65 92 65 168S71 34 33 75H2C39 34 66-17 66-93S39-220 2-261h31" id="aS"/><g id="o"><use transform="matrix(0.06172839506172839,0,0,0.06172839506172839,0,0)" xlink:href="#aM"/><use transform="matrix(0.06172839506172839,0,0,0.06172839506172839,12.345679012345679,0)" xlink:href="#aI"/><use transform="matrix(0.06172839506172839,0,0,0.06172839506172839,24.691358024691358,0)" xlink:href="#aa"/><use transform="matrix(0.06172839506172839,0,0,0.06172839506172839,30.864197530864196,0)" xlink:href="#aN"/><use transform="matrix(0.06172839506172839,0,0,0.06172839506172839,43.20987654320987,0)" xlink:href="#aO"/><use transform="matrix(0.06172839506172839,0,0,0.06172839506172839,59.197530864197525,0)" xlink:href="#Y"/><use transform="matrix(0.06172839506172839,0,0,0.06172839506172839,71.5432098765432,0)" xlink:href="#aH"/><use transform="matrix(0.06172839506172839,0,0,0.06172839506172839,83.88888888888889,0)" xlink:href="#aa"/><use transform="matrix(0.06172839506172839,0,0,0.06172839506172839,90.06172839506172,0)" xlink:href="#aI"/><use transform="matrix(0.06172839506172839,0,0,0.06172839506172839,102.4074074074074,0)" xlink:href="#aJ"/><use transform="matrix(0.06172839506172839,0,0,0.06172839506172839,107.28395061728395,0)" xlink:href="#aH"/><use transform="matrix(0.06172839506172839,0,0,0.06172839506172839,119.62962962962963,0)" xlink:href="#aP"/><use transform="matrix(0.06172839506172839,0,0,0.06172839506172839,130.74074074074073,0)" xlink:href="#aQ"/><use transform="matrix(0.06172839506172839,0,0,0.06172839506172839,145.55555555555554,0)" xlink:href="#ab"/><use transform="matrix(0.06172839506172839,0,0,0.06172839506172839,157.9012345679012,0)" xlink:href="#aG"/><use transform="matrix(0.06172839506172839,0,0,0.06172839506172839,162.77777777777774,0)" xlink:href="#aL"/><use transform="matrix(0.06172839506172839,0,0,0.06172839506172839,168.95061728395058,0)" xlink:href="#aR"/><use transform="matrix(0.06172839506172839,0,0,0.06172839506172839,176.29629629629625,0)" xlink:href="#aS"/></g><g id="p"><use transform="matrix(0.06172839506172839,0,0,0.06172839506172839,0,0)" xlink:href="#ab"/><use transform="matrix(0.06172839506172839,0,0,0.06172839506172839,12.345679012345679,0)" xlink:href="#aG"/><use transform="matrix(0.06172839506172839,0,0,0.06172839506172839,17.22222222222222,0)" xlink:href="#aP"/><use transform="matrix(0.06172839506172839,0,0,0.06172839506172839,28.333333333333332,0)" xlink:href="#ab"/></g><path fill="#333" d="M128 0H69L1-190h53L99-40l48-150h52" id="aT"/><g id="q"><use transform="matrix(0.04938271604938272,0,0,0.04938271604938272,0,0)" xlink:href="#ai"/><use transform="matrix(0.04938271604938272,0,0,0.04938271604938272,4.938271604938272,0)" xlink:href="#az"/><use transform="matrix(0.04938271604938272,0,0,0.04938271604938272,15.753086419753087,0)" xlink:href="#aT"/><use transform="matrix(0.04938271604938272,0,0,0.04938271604938272,25.629629629629633,0)" xlink:href="#as"/><use transform="matrix(0.04938271604938272,0,0,0.04938271604938272,35.50617283950618,0)" xlink:href="#aA"/><use transform="matrix(0.04938271604938272,0,0,0.04938271604938272,40.44444444444445,0)" xlink:href="#ai"/><use transform="matrix(0.04938271604938272,0,0,0.04938271604938272,45.38271604938272,0)" xlink:href="#ar"/><use transform="matrix(0.04938271604938272,0,0,0.04938271604938272,56.19753086419754,0)" xlink:href="#as"/><use transform="matrix(0.04938271604938272,0,0,0.04938271604938272,66.07407407407408,0)" xlink:href="#at"/><use transform="matrix(0.04938271604938272,0,0,0.04938271604938272,71.95061728395062,0)" xlink:href="#ah"/></g><g id="r"><use transform="matrix(0.04938271604938272,0,0,0.04938271604938272,0,0)" xlink:href="#aE"/><use transform="matrix(0.04938271604938272,0,0,0.04938271604938272,15.80246913580247,0)" xlink:href="#ah"/><use transform="matrix(0.04938271604938272,0,0,0.04938271604938272,25.679012345679016,0)" xlink:href="#ax"/><use transform="matrix(0.04938271604938272,0,0,0.04938271604938272,35.55555555555556,0)" xlink:href="#ax"/><use transform="matrix(0.04938271604938272,0,0,0.04938271604938272,45.4320987654321,0)" xlink:href="#as"/><use transform="matrix(0.04938271604938272,0,0,0.04938271604938272,55.308641975308646,0)" xlink:href="#aj"/><use transform="matrix(0.04938271604938272,0,0,0.04938271604938272,66.12345679012346,0)" xlink:href="#ah"/></g><g id="s"><use transform="matrix(0.04938271604938272,0,0,0.04938271604938272,0,0)" xlink:href="#at"/><use transform="matrix(0.04938271604938272,0,0,0.04938271604938272,5.8765432098765435,0)" xlink:href="#as"/><use transform="matrix(0.04938271604938272,0,0,0.04938271604938272,15.753086419753087,0)" xlink:href="#al"/><use transform="matrix(0.04938271604938272,0,0,0.04938271604938272,26.567901234567902,0)" xlink:href="#aA"/><use transform="matrix(0.04938271604938272,0,0,0.04938271604938272,31.506172839506174,0)" xlink:href="#ah"/></g><path fill="#333" d="M121-226c-27-7-43 5-38 36h38v33H83V0H34v-157H6v-33h28c-9-59 32-81 87-68v32" id="aU"/><path fill="#333" d="M231 0h-52l-39-155L100 0H48L-1-190h46L77-45c9-52 24-97 36-145h53l37 145 32-145h46" id="aV"/><g id="t"><use transform="matrix(0.04938271604938272,0,0,0.04938271604938272,0,0)" xlink:href="#aU"/><use transform="matrix(0.04938271604938272,0,0,0.04938271604938272,5.8765432098765435,0)" xlink:href="#am"/><use transform="matrix(0.04938271604938272,0,0,0.04938271604938272,16.691358024691358,0)" xlink:href="#ao"/><use transform="matrix(0.04938271604938272,0,0,0.04938271604938272,23.604938271604937,0)" xlink:href="#aV"/><use transform="matrix(0.04938271604938272,0,0,0.04938271604938272,37.4320987654321,0)" xlink:href="#as"/><use transform="matrix(0.04938271604938272,0,0,0.04938271604938272,47.308641975308646,0)" xlink:href="#ao"/><use transform="matrix(0.04938271604938272,0,0,0.04938271604938272,54.22222222222223,0)" xlink:href="#ar"/></g><g id="u"><use transform="matrix(0.04938271604938272,0,0,0.04938271604938272,0,0)" xlink:href="#aE"/><use transform="matrix(0.04938271604938272,0,0,0.04938271604938272,15.80246913580247,0)" xlink:href="#ah"/><use transform="matrix(0.04938271604938272,0,0,0.04938271604938272,25.679012345679016,0)" xlink:href="#ax"/><use transform="matrix(0.04938271604938272,0,0,0.04938271604938272,35.55555555555556,0)" xlink:href="#ax"/><use transform="matrix(0.04938271604938272,0,0,0.04938271604938272,45.4320987654321,0)" xlink:href="#as"/><use transform="matrix(0.04938271604938272,0,0,0.04938271604938272,55.308641975308646,0)" xlink:href="#aj"/><use transform="matrix(0.04938271604938272,0,0,0.04938271604938272,66.12345679012346,0)" xlink:href="#ah"/></g><g id="v"><use transform="matrix(0.04938271604938272,0,0,0.04938271604938272,0,0)" xlink:href="#at"/><use transform="matrix(0.04938271604938272,0,0,0.04938271604938272,5.8765432098765435,0)" xlink:href="#am"/></g><g id="w"><use transform="matrix(0.04938271604938272,0,0,0.04938271604938272,0,0)" xlink:href="#az"/><use transform="matrix(0.04938271604938272,0,0,0.04938271604938272,10.814814814814815,0)" xlink:href="#ah"/><use transform="matrix(0.04938271604938272,0,0,0.04938271604938272,20.69135802469136,0)" xlink:href="#ai"/><use transform="matrix(0.04938271604938272,0,0,0.04938271604938272,25.629629629629633,0)" xlink:href="#aj"/><use transform="matrix(0.04938271604938272,0,0,0.04938271604938272,36.44444444444445,0)" xlink:href="#ak"/><use transform="matrix(0.04938271604938272,0,0,0.04938271604938272,47.25925925925927,0)" xlink:href="#al"/><use transform="matrix(0.04938271604938272,0,0,0.04938271604938272,58.074074074074076,0)" xlink:href="#am"/><use transform="matrix(0.04938271604938272,0,0,0.04938271604938272,68.8888888888889,0)" xlink:href="#an"/><use transform="matrix(0.04938271604938272,0,0,0.04938271604938272,79.70370370370371,0)" xlink:href="#ao"/><use transform="matrix(0.04938271604938272,0,0,0.04938271604938272,86.61728395061729,0)" xlink:href="#ax"/></g><path fill="#333" d="M30-248c118-7 216 8 213 122C240-48 200 0 122 0H30v-248zM63-27c89 8 146-16 146-99s-60-101-146-95v194" id="aW"/><g id="x"><use transform="matrix(0.06172839506172839,0,0,0.06172839506172839,0,0)" xlink:href="#aJ"/><use transform="matrix(0.06172839506172839,0,0,0.06172839506172839,4.876543209876543,0)" xlink:href="#aP"/><use transform="matrix(0.06172839506172839,0,0,0.06172839506172839,15.987654320987653,0)" xlink:href="#aW"/><use transform="matrix(0.06172839506172839,0,0,0.06172839506172839,31.975308641975307,0)" xlink:href="#ab"/><use transform="matrix(0.06172839506172839,0,0,0.06172839506172839,44.32098765432099,0)" xlink:href="#aP"/><use transform="matrix(0.06172839506172839,0,0,0.06172839506172839,55.4320987654321,0)" xlink:href="#aa"/><use transform="matrix(0.06172839506172839,0,0,0.06172839506172839,61.604938271604944,0)" xlink:href="#aJ"/><use transform="matrix(0.06172839506172839,0,0,0.06172839506172839,66.48148148148148,0)" xlink:href="#aH"/><use transform="matrix(0.06172839506172839,0,0,0.06172839506172839,78.82716049382717,0)" xlink:href="#aI"/><use transform="matrix(0.06172839506172839,0,0,0.06172839506172839,91.17283950617285,0)" xlink:href="#aa"/><use transform="matrix(0.06172839506172839,0,0,0.06172839506172839,97.34567901234568,0)" xlink:href="#aJ"/><use transform="matrix(0.06172839506172839,0,0,0.06172839506172839,102.22222222222223,0)" xlink:href="#Y"/><use transform="matrix(0.06172839506172839,0,0,0.06172839506172839,114.56790123456791,0)" xlink:href="#aH"/><use transform="matrix(0.06172839506172839,0,0,0.06172839506172839,126.9135802469136,0)" xlink:href="#aR"/><use transform="matrix(0.06172839506172839,0,0,0.06172839506172839,134.25925925925927,0)" xlink:href="#aS"/></g><g id="y"><use transform="matrix(0.04938271604938272,0,0,0.04938271604938272,0,0)" xlink:href="#af"/><use transform="matrix(0.04938271604938272,0,0,0.04938271604938272,10.370370370370372,0)" xlink:href="#af"/><use transform="matrix(0.04938271604938272,0,0,0.04938271604938272,20.740740740740744,0)" xlink:href="#aE"/><use transform="matrix(0.04938271604938272,0,0,0.04938271604938272,36.543209876543216,0)" xlink:href="#ah"/><use transform="matrix(0.04938271604938272,0,0,0.04938271604938272,46.41975308641976,0)" xlink:href="#ax"/><use transform="matrix(0.04938271604938272,0,0,0.04938271604938272,56.2962962962963,0)" xlink:href="#ax"/><use transform="matrix(0.04938271604938272,0,0,0.04938271604938272,66.17283950617285,0)" xlink:href="#as"/><use transform="matrix(0.04938271604938272,0,0,0.04938271604938272,76.0493827160494,0)" xlink:href="#aj"/><use transform="matrix(0.04938271604938272,0,0,0.04938271604938272,86.8641975308642,0)" xlink:href="#ah"/></g><g id="z"><use transform="matrix(0.04938271604938272,0,0,0.04938271604938272,0,0)" xlink:href="#ao"/><use transform="matrix(0.04938271604938272,0,0,0.04938271604938272,6.913580246913581,0)" xlink:href="#ah"/><use transform="matrix(0.04938271604938272,0,0,0.04938271604938272,16.790123456790127,0)" xlink:href="#aF"/><use transform="matrix(0.04938271604938272,0,0,0.04938271604938272,26.666666666666668,0)" xlink:href="#ai"/><use transform="matrix(0.04938271604938272,0,0,0.04938271604938272,31.60493827160494,0)" xlink:href="#ah"/><use transform="matrix(0.04938271604938272,0,0,0.04938271604938272,41.48148148148149,0)" xlink:href="#aT"/><use transform="matrix(0.04938271604938272,0,0,0.04938271604938272,51.35802469135803,0)" xlink:href="#ah"/><use transform="matrix(0.04938271604938272,0,0,0.04938271604938272,61.23456790123457,0)" xlink:href="#ar"/><use transform="matrix(0.04938271604938272,0,0,0.04938271604938272,72.0493827160494,0)" xlink:href="#au"/><use transform="matrix(0.04938271604938272,0,0,0.04938271604938272,82.41975308641976,0)" xlink:href="#au"/></g><g id="A"><use transform="matrix(0.04938271604938272,0,0,0.04938271604938272,0,0)" xlink:href="#aU"/><use transform="matrix(0.04938271604938272,0,0,0.04938271604938272,5.8765432098765435,0)" xlink:href="#ai"/><use transform="matrix(0.04938271604938272,0,0,0.04938271604938272,10.814814814814817,0)" xlink:href="#az"/><use transform="matrix(0.04938271604938272,0,0,0.04938271604938272,21.629629629629633,0)" xlink:href="#ar"/></g><g id="B"><use transform="matrix(0.04938271604938272,0,0,0.04938271604938272,0,0)" xlink:href="#ax"/><use transform="matrix(0.04938271604938272,0,0,0.04938271604938272,9.876543209876544,0)" xlink:href="#ak"/><use transform="matrix(0.04938271604938272,0,0,0.04938271604938272,20.69135802469136,0)" xlink:href="#am"/><use transform="matrix(0.04938271604938272,0,0,0.04938271604938272,31.506172839506174,0)" xlink:href="#ao"/><use transform="matrix(0.04938271604938272,0,0,0.04938271604938272,38.41975308641976,0)" xlink:href="#at"/><use transform="matrix(0.04938271604938272,0,0,0.04938271604938272,44.296296296296305,0)" xlink:href="#ah"/><use transform="matrix(0.04938271604938272,0,0,0.04938271604938272,54.17283950617284,0)" xlink:href="#ax"/><use transform="matrix(0.04938271604938272,0,0,0.04938271604938272,64.0493827160494,0)" xlink:href="#at"/></g><g id="C"><use transform="matrix(0.04938271604938272,0,0,0.04938271604938272,0,0)" xlink:href="#aq"/><use transform="matrix(0.04938271604938272,0,0,0.04938271604938272,10.814814814814815,0)" xlink:href="#as"/><use transform="matrix(0.04938271604938272,0,0,0.04938271604938272,20.69135802469136,0)" xlink:href="#at"/><use transform="matrix(0.04938271604938272,0,0,0.04938271604938272,26.567901234567902,0)" xlink:href="#ak"/></g><g id="D"><use transform="matrix(0.04938271604938272,0,0,0.04938271604938272,0,0)" xlink:href="#ar"/><use transform="matrix(0.04938271604938272,0,0,0.04938271604938272,10.814814814814815,0)" xlink:href="#ah"/><use transform="matrix(0.04938271604938272,0,0,0.04938271604938272,20.69135802469136,0)" xlink:href="#ax"/><use transform="matrix(0.04938271604938272,0,0,0.04938271604938272,30.567901234567906,0)" xlink:href="#at"/><use transform="matrix(0.04938271604938272,0,0,0.04938271604938272,36.44444444444445,0)" xlink:href="#ai"/><use transform="matrix(0.04938271604938272,0,0,0.04938271604938272,41.38271604938272,0)" xlink:href="#az"/><use transform="matrix(0.04938271604938272,0,0,0.04938271604938272,52.19753086419754,0)" xlink:href="#as"/><use transform="matrix(0.04938271604938272,0,0,0.04938271604938272,62.074074074074076,0)" xlink:href="#at"/><use transform="matrix(0.04938271604938272,0,0,0.04938271604938272,67.95061728395062,0)" xlink:href="#ai"/><use transform="matrix(0.04938271604938272,0,0,0.04938271604938272,72.88888888888889,0)" xlink:href="#am"/><use transform="matrix(0.04938271604938272,0,0,0.04938271604938272,83.7037037037037,0)" xlink:href="#az"/></g><g id="E"><use transform="matrix(0.04938271604938272,0,0,0.04938271604938272,0,0)" xlink:href="#ai"/><use transform="matrix(0.04938271604938272,0,0,0.04938271604938272,4.938271604938272,0)" xlink:href="#az"/><use transform="matrix(0.04938271604938272,0,0,0.04938271604938272,15.753086419753087,0)" xlink:href="#aF"/><use transform="matrix(0.04938271604938272,0,0,0.04938271604938272,25.629629629629633,0)" xlink:href="#ao"/><use transform="matrix(0.04938271604938272,0,0,0.04938271604938272,32.543209876543216,0)" xlink:href="#ah"/><use transform="matrix(0.04938271604938272,0,0,0.04938271604938272,42.41975308641976,0)" xlink:href="#aE"/><use transform="matrix(0.04938271604938272,0,0,0.04938271604938272,58.22222222222223,0)" xlink:href="#ah"/><use transform="matrix(0.04938271604938272,0,0,0.04938271604938272,68.09876543209877,0)" xlink:href="#az"/><use transform="matrix(0.04938271604938272,0,0,0.04938271604938272,78.91358024691358,0)" xlink:href="#at"/></g><g id="F"><use transform="matrix(0.04938271604938272,0,0,0.04938271604938272,0,0)" xlink:href="#ak"/><use transform="matrix(0.04938271604938272,0,0,0.04938271604938272,10.814814814814815,0)" xlink:href="#am"/><use transform="matrix(0.04938271604938272,0,0,0.04938271604938272,21.62962962962963,0)" xlink:href="#aq"/></g><g id="G"><use transform="matrix(0.04938271604938272,0,0,0.04938271604938272,0,0)" xlink:href="#aF"/><use transform="matrix(0.04938271604938272,0,0,0.04938271604938272,9.876543209876544,0)" xlink:href="#am"/><use transform="matrix(0.04938271604938272,0,0,0.04938271604938272,20.69135802469136,0)" xlink:href="#an"/><use transform="matrix(0.04938271604938272,0,0,0.04938271604938272,31.506172839506174,0)" xlink:href="#az"/><use transform="matrix(0.04938271604938272,0,0,0.04938271604938272,42.320987654320994,0)" xlink:href="#at"/></g><g id="H"><use transform="matrix(0.04938271604938272,0,0,0.04938271604938272,0,0)" xlink:href="#at"/><use transform="matrix(0.04938271604938272,0,0,0.04938271604938272,5.8765432098765435,0)" xlink:href="#am"/></g><path fill="#333" d="M144 0l-44-69L55 0H2l70-98-66-92h53l41 62 40-62h54l-67 91 71 99h-54" id="aX"/><g id="I"><use transform="matrix(0.04938271604938272,0,0,0.04938271604938272,0,0)" xlink:href="#az"/><use transform="matrix(0.04938271604938272,0,0,0.04938271604938272,10.814814814814815,0)" xlink:href="#ah"/><use transform="matrix(0.04938271604938272,0,0,0.04938271604938272,20.69135802469136,0)" xlink:href="#aX"/><use transform="matrix(0.04938271604938272,0,0,0.04938271604938272,30.567901234567906,0)" xlink:href="#at"/></g><g id="J"><use transform="matrix(0.04938271604938272,0,0,0.04938271604938272,0,0)" xlink:href="#az"/><use transform="matrix(0.04938271604938272,0,0,0.04938271604938272,10.814814814814815,0)" xlink:href="#am"/><use transform="matrix(0.04938271604938272,0,0,0.04938271604938272,21.62962962962963,0)" xlink:href="#ar"/><use transform="matrix(0.04938271604938272,0,0,0.04938271604938272,32.44444444444444,0)" xlink:href="#ah"/></g><g id="K"><use transform="matrix(0.04938271604938272,0,0,0.04938271604938272,0,0)" xlink:href="#ai"/><use transform="matrix(0.04938271604938272,0,0,0.04938271604938272,4.938271604938272,0)" xlink:href="#az"/></g><g id="L"><use transform="matrix(0.04938271604938272,0,0,0.04938271604938272,0,0)" xlink:href="#aq"/><use transform="matrix(0.04938271604938272,0,0,0.04938271604938272,10.814814814814815,0)" xlink:href="#as"/><use transform="matrix(0.04938271604938272,0,0,0.04938271604938272,20.69135802469136,0)" xlink:href="#at"/><use transform="matrix(0.04938271604938272,0,0,0.04938271604938272,26.567901234567902,0)" xlink:href="#ak"/></g><path fill="#333" d="M30 0v-248h33v221h125V0H30" id="aY"/><g id="M"><use transform="matrix(0.06172839506172839,0,0,0.06172839506172839,0,0)" xlink:href="#aY"/><use transform="matrix(0.06172839506172839,0,0,0.06172839506172839,12.345679012345679,0)" xlink:href="#Y"/><use transform="matrix(0.06172839506172839,0,0,0.06172839506172839,24.691358024691358,0)" xlink:href="#Y"/><use transform="matrix(0.06172839506172839,0,0,0.06172839506172839,37.03703703703704,0)" xlink:href="#aM"/></g><path fill="#333" d="M210-169c-67 3-38 105-44 169h-31v-121c0-29-5-50-35-48C34-165 62-65 56 0H25l-1-190h30c1 10-1 24 2 32 10-44 99-50 107 0 11-21 27-35 58-36 85-2 47 119 55 194h-31v-121c0-29-5-49-35-48" id="aZ"/><path fill="#333" d="M177-190C167-65 218 103 67 71c-23-6-38-20-44-43l32-5c15 47 100 32 89-28v-30C133-14 115 1 83 1 29 1 15-40 15-95c0-56 16-97 71-98 29-1 48 16 59 35 1-10 0-23 2-32h30zM94-22c36 0 50-32 50-73 0-42-14-75-50-75-39 0-46 34-46 75s6 73 46 73" id="ba"/><path fill="#333" d="M33 0v-248h34V0H33" id="bb"/><path fill="#333" d="M140-251c81 0 123 46 123 126C263-53 228-8 163 1c7 30 30 48 69 40v23c-55 16-95-15-103-61C56-3 17-48 17-125c0-80 42-126 123-126zm0 227c63 0 89-41 89-101s-29-99-89-99c-61 0-89 39-89 99S79-25 140-24" id="bc"/><g id="N"><use transform="matrix(0.06172839506172839,0,0,0.06172839506172839,0,0)" xlink:href="#aZ"/><use transform="matrix(0.06172839506172839,0,0,0.06172839506172839,18.456790123456788,0)" xlink:href="#ab"/><use transform="matrix(0.06172839506172839,0,0,0.06172839506172839,30.80246913580247,0)" xlink:href="#aP"/><use transform="matrix(0.06172839506172839,0,0,0.06172839506172839,41.91358024691358,0)" xlink:href="#aP"/><use transform="matrix(0.06172839506172839,0,0,0.06172839506172839,53.0246913580247,0)" xlink:href="#aI"/><use transform="matrix(0.06172839506172839,0,0,0.06172839506172839,65.37037037037038,0)" xlink:href="#ba"/><use transform="matrix(0.06172839506172839,0,0,0.06172839506172839,77.71604938271606,0)" xlink:href="#ab"/><use transform="matrix(0.06172839506172839,0,0,0.06172839506172839,90.06172839506175,0)" xlink:href="#aP"/><use transform="matrix(0.06172839506172839,0,0,0.06172839506172839,101.17283950617286,0)" xlink:href="#bb"/><use transform="matrix(0.06172839506172839,0,0,0.06172839506172839,107.3456790123457,0)" xlink:href="#aH"/><use transform="matrix(0.06172839506172839,0,0,0.06172839506172839,119.69135802469138,0)" xlink:href="#bc"/><use transform="matrix(0.06172839506172839,0,0,0.06172839506172839,136.97530864197535,0)" xlink:href="#Z"/><use transform="matrix(0.06172839506172839,0,0,0.06172839506172839,149.32098765432102,0)" xlink:href="#ab"/><use transform="matrix(0.06172839506172839,0,0,0.06172839506172839,161.66666666666669,0)" xlink:href="#Z"/><use transform="matrix(0.06172839506172839,0,0,0.06172839506172839,174.01234567901236,0)" xlink:href="#ab"/><use transform="matrix(0.06172839506172839,0,0,0.06172839506172839,186.35802469135803,0)" xlink:href="#aR"/><use transform="matrix(0.06172839506172839,0,0,0.06172839506172839,193.7037037037037,0)" xlink:href="#aS"/></g><path fill="#333" d="M63-220v92h138v28H63V0H30v-248h175v28H63" id="bd"/><path fill="#333" d="M206 0h-36l-40-164L89 0H53L-1-190h32L70-26l43-164h34l41 164 42-164h31" id="be"/><path fill="#333" d="M143 0L79-87 56-68V0H24v-261h32v163l83-92h37l-77 82L181 0h-38" id="bf"/><g id="O"><use transform="matrix(0.06172839506172839,0,0,0.06172839506172839,0,0)" xlink:href="#bd"/><use transform="matrix(0.06172839506172839,0,0,0.06172839506172839,13.518518518518517,0)" xlink:href="#ac"/><use transform="matrix(0.06172839506172839,0,0,0.06172839506172839,20.864197530864196,0)" xlink:href="#aI"/><use transform="matrix(0.06172839506172839,0,0,0.06172839506172839,33.20987654320987,0)" xlink:href="#aZ"/><use transform="matrix(0.06172839506172839,0,0,0.06172839506172839,51.66666666666666,0)" xlink:href="#ab"/><use transform="matrix(0.06172839506172839,0,0,0.06172839506172839,64.01234567901234,0)" xlink:href="#be"/><use transform="matrix(0.06172839506172839,0,0,0.06172839506172839,80,0)" xlink:href="#Y"/><use transform="matrix(0.06172839506172839,0,0,0.06172839506172839,92.34567901234568,0)" xlink:href="#ac"/><use transform="matrix(0.06172839506172839,0,0,0.06172839506172839,99.69135802469137,0)" xlink:href="#bf"/></g><g id="P"><use transform="matrix(0.04938271604938272,0,0,0.04938271604938272,0,0)" xlink:href="#ah"/><use transform="matrix(0.04938271604938272,0,0,0.04938271604938272,9.876543209876544,0)" xlink:href="#az"/><use transform="matrix(0.04938271604938272,0,0,0.04938271604938272,20.69135802469136,0)" xlink:href="#aT"/><use transform="matrix(0.04938271604938272,0,0,0.04938271604938272,30.567901234567906,0)" xlink:href="#ah"/><use transform="matrix(0.04938271604938272,0,0,0.04938271604938272,40.44444444444445,0)" xlink:href="#aA"/><use transform="matrix(0.04938271604938272,0,0,0.04938271604938272,45.38271604938272,0)" xlink:href="#am"/><use transform="matrix(0.04938271604938272,0,0,0.04938271604938272,56.19753086419754,0)" xlink:href="#aq"/><use transform="matrix(0.04938271604938272,0,0,0.04938271604938272,67.01234567901236,0)" xlink:href="#ah"/></g><path fill="#333" d="M115-194c53 0 69 39 70 98 0 66-23 100-70 100C84 3 66-7 56-30L54 0H23l1-261h32v101c10-23 28-34 59-34zm-8 174c40 0 45-34 45-75 0-40-5-75-45-74-42 0-51 32-51 76 0 43 10 73 51 73" id="bg"/><path fill="#333" d="M232-93c-1 65-40 97-104 97C67 4 28-28 28-90v-158h33c8 89-33 224 67 224 102 0 64-133 71-224h33v155" id="bh"/><path fill="#333" d="M85-194c31 0 48 13 60 33l-1-100h32l1 261h-30c-2-10 0-23-3-31C134-8 116 4 85 4 32 4 16-35 15-94c0-66 23-100 70-100zm9 24c-40 0-46 34-46 75 0 40 6 74 45 74 42 0 51-32 51-76 0-42-9-74-50-73" id="bi"/><g id="Q"><use transform="matrix(0.06172839506172839,0,0,0.06172839506172839,0,0)" xlink:href="#aH"/><use transform="matrix(0.06172839506172839,0,0,0.06172839506172839,12.345679012345679,0)" xlink:href="#ab"/><use transform="matrix(0.06172839506172839,0,0,0.06172839506172839,24.691358024691358,0)" xlink:href="#aJ"/><use transform="matrix(0.06172839506172839,0,0,0.06172839506172839,29.5679012345679,0)" xlink:href="#ba"/><use transform="matrix(0.06172839506172839,0,0,0.06172839506172839,41.913580246913575,0)" xlink:href="#aN"/><use transform="matrix(0.06172839506172839,0,0,0.06172839506172839,54.25925925925925,0)" xlink:href="#bg"/><use transform="matrix(0.06172839506172839,0,0,0.06172839506172839,66.60493827160494,0)" xlink:href="#Y"/><use transform="matrix(0.06172839506172839,0,0,0.06172839506172839,78.95061728395062,0)" xlink:href="#Z"/><use transform="matrix(0.06172839506172839,0,0,0.06172839506172839,91.2962962962963,0)" xlink:href="#ac"/><use transform="matrix(0.06172839506172839,0,0,0.06172839506172839,98.64197530864199,0)" xlink:href="#bh"/><use transform="matrix(0.06172839506172839,0,0,0.06172839506172839,114.62962962962965,0)" xlink:href="#aM"/><use transform="matrix(0.06172839506172839,0,0,0.06172839506172839,126.97530864197533,0)" xlink:href="#bi"/><use transform="matrix(0.06172839506172839,0,0,0.06172839506172839,139.32098765432102,0)" xlink:href="#aI"/><use transform="matrix(0.06172839506172839,0,0,0.06172839506172839,151.66666666666669,0)" xlink:href="#aa"/><use transform="matrix(0.06172839506172839,0,0,0.06172839506172839,157.83950617283952,0)" xlink:href="#ab"/><use transform="matrix(0.06172839506172839,0,0,0.06172839506172839,170.1851851851852,0)" xlink:href="#bb"/><use transform="matrix(0.06172839506172839,0,0,0.06172839506172839,176.35802469135803,0)" xlink:href="#aH"/><use transform="matrix(0.06172839506172839,0,0,0.06172839506172839,188.7037037037037,0)" xlink:href="#bc"/><use transform="matrix(0.06172839506172839,0,0,0.06172839506172839,205.98765432098764,0)" xlink:href="#Z"/><use transform="matrix(0.06172839506172839,0,0,0.06172839506172839,218.33333333333331,0)" xlink:href="#ab"/><use transform="matrix(0.06172839506172839,0,0,0.06172839506172839,230.67901234567898,0)" xlink:href="#Z"/><use transform="matrix(0.06172839506172839,0,0,0.06172839506172839,243.02469135802465,0)" xlink:href="#ab"/><use transform="matrix(0.06172839506172839,0,0,0.06172839506172839,255.3703703703703,0)" xlink:href="#aR"/><use transform="matrix(0.06172839506172839,0,0,0.06172839506172839,262.716049382716,0)" xlink:href="#aS"/></g><g id="R"><use transform="matrix(0.06172839506172839,0,0,0.06172839506172839,0,0)" xlink:href="#ab"/><use transform="matrix(0.06172839506172839,0,0,0.06172839506172839,12.345679012345679,0)" xlink:href="#aH"/><use transform="matrix(0.06172839506172839,0,0,0.06172839506172839,24.691358024691358,0)" xlink:href="#aK"/><use transform="matrix(0.06172839506172839,0,0,0.06172839506172839,35.80246913580247,0)" xlink:href="#ab"/><use transform="matrix(0.06172839506172839,0,0,0.06172839506172839,48.148148148148145,0)" xlink:href="#aG"/><use transform="matrix(0.06172839506172839,0,0,0.06172839506172839,53.02469135802469,0)" xlink:href="#Y"/><use transform="matrix(0.06172839506172839,0,0,0.06172839506172839,65.37037037037037,0)" xlink:href="#aM"/><use transform="matrix(0.06172839506172839,0,0,0.06172839506172839,77.71604938271605,0)" xlink:href="#ab"/><use transform="matrix(0.06172839506172839,0,0,0.06172839506172839,90.06172839506173,0)" xlink:href="#bb"/><use transform="matrix(0.06172839506172839,0,0,0.06172839506172839,96.23456790123457,0)" xlink:href="#aH"/><use transform="matrix(0.06172839506172839,0,0,0.06172839506172839,108.58024691358025,0)" xlink:href="#bc"/><use transform="matrix(0.06172839506172839,0,0,0.06172839506172839,125.8641975308642,0)" xlink:href="#Z"/><use transform="matrix(0.06172839506172839,0,0,0.06172839506172839,138.20987654320987,0)" xlink:href="#ab"/><use transform="matrix(0.06172839506172839,0,0,0.06172839506172839,150.55555555555554,0)" xlink:href="#Z"/><use transform="matrix(0.06172839506172839,0,0,0.06172839506172839,162.9012345679012,0)" xlink:href="#ab"/><use transform="matrix(0.06172839506172839,0,0,0.06172839506172839,175.24691358024688,0)" xlink:href="#aR"/><use transform="matrix(0.06172839506172839,0,0,0.06172839506172839,182.59259259259255,0)" xlink:href="#aS"/></g><path fill="#333" d="M179-190L93 31C79 59 56 82 12 73V49c39 6 53-20 64-50L1-190h34L92-34l54-156h33" id="bj"/><g id="S"><use transform="matrix(0.06172839506172839,0,0,0.06172839506172839,0,0)" xlink:href="#aa"/><use transform="matrix(0.06172839506172839,0,0,0.06172839506172839,6.172839506172839,0)" xlink:href="#Y"/><use transform="matrix(0.06172839506172839,0,0,0.06172839506172839,18.51851851851852,0)" xlink:href="#aM"/><use transform="matrix(0.06172839506172839,0,0,0.06172839506172839,30.864197530864196,0)" xlink:href="#Y"/><use transform="matrix(0.06172839506172839,0,0,0.06172839506172839,43.20987654320987,0)" xlink:href="#aG"/><use transform="matrix(0.06172839506172839,0,0,0.06172839506172839,48.08641975308642,0)" xlink:href="#Y"/><use transform="matrix(0.06172839506172839,0,0,0.06172839506172839,60.432098765432094,0)" xlink:href="#ba"/><use transform="matrix(0.06172839506172839,0,0,0.06172839506172839,72.77777777777777,0)" xlink:href="#bj"/><use transform="matrix(0.06172839506172839,0,0,0.06172839506172839,83.88888888888889,0)" xlink:href="#bh"/><use transform="matrix(0.06172839506172839,0,0,0.06172839506172839,99.87654320987654,0)" xlink:href="#aM"/><use transform="matrix(0.06172839506172839,0,0,0.06172839506172839,112.22222222222223,0)" xlink:href="#bi"/><use transform="matrix(0.06172839506172839,0,0,0.06172839506172839,124.56790123456791,0)" xlink:href="#aI"/><use transform="matrix(0.06172839506172839,0,0,0.06172839506172839,136.9135802469136,0)" xlink:href="#aa"/><use transform="matrix(0.06172839506172839,0,0,0.06172839506172839,143.08641975308643,0)" xlink:href="#ab"/><use transform="matrix(0.06172839506172839,0,0,0.06172839506172839,155.4320987654321,0)" xlink:href="#bb"/><use transform="matrix(0.06172839506172839,0,0,0.06172839506172839,161.60493827160494,0)" xlink:href="#aH"/><use transform="matrix(0.06172839506172839,0,0,0.06172839506172839,173.9506172839506,0)" xlink:href="#bc"/><use transform="matrix(0.06172839506172839,0,0,0.06172839506172839,191.23456790123456,0)" xlink:href="#Z"/><use transform="matrix(0.06172839506172839,0,0,0.06172839506172839,203.58024691358023,0)" xlink:href="#ab"/><use transform="matrix(0.06172839506172839,0,0,0.06172839506172839,215.9259259259259,0)" xlink:href="#Z"/><use transform="matrix(0.06172839506172839,0,0,0.06172839506172839,228.27160493827157,0)" xlink:href="#ab"/><use transform="matrix(0.06172839506172839,0,0,0.06172839506172839,240.61728395061724,0)" xlink:href="#aR"/><use transform="matrix(0.06172839506172839,0,0,0.06172839506172839,247.9629629629629,0)" xlink:href="#aS"/></g><path fill="#333" d="M234-2c-28 10-62 0-77-18C117 19 8 12 13-65c3-43 29-61 60-76-25-40-17-114 47-108 35 3 59 15 59 50 0 44-40 53-71 69 14 26 32 50 51 72 14-21 24-43 30-72l26 8c-9 33-21 57-38 82 13 13 33 22 57 15v23zM97-151c25-10 52-18 56-48-1-18-13-29-33-29-42 0-39 50-23 77zM42-66c-3 51 71 58 98 28-20-24-41-51-56-80-23 10-40 24-42 52" id="bk"/><g id="U"><use transform="matrix(0.06172839506172839,0,0,0.06172839506172839,0,0)" xlink:href="#bk"/><use transform="matrix(0.06172839506172839,0,0,0.06172839506172839,14.814814814814813,0)" xlink:href="#bk"/></g><path fill="#333" d="M190 0L58-211 59 0H30v-248h39L202-35l-2-213h31V0h-41" id="bl"/><g id="V"><use transform="matrix(0.06172839506172839,0,0,0.06172839506172839,0,0)" xlink:href="#aN"/><use transform="matrix(0.06172839506172839,0,0,0.06172839506172839,12.345679012345679,0)" xlink:href="#aI"/><use transform="matrix(0.06172839506172839,0,0,0.06172839506172839,24.691358024691358,0)" xlink:href="#aP"/><use transform="matrix(0.06172839506172839,0,0,0.06172839506172839,35.80246913580247,0)" xlink:href="#bh"/><use transform="matrix(0.06172839506172839,0,0,0.06172839506172839,51.79012345679012,0)" xlink:href="#aH"/><use transform="matrix(0.06172839506172839,0,0,0.06172839506172839,64.1358024691358,0)" xlink:href="#aK"/><use transform="matrix(0.06172839506172839,0,0,0.06172839506172839,75.24691358024691,0)" xlink:href="#aJ"/><use transform="matrix(0.06172839506172839,0,0,0.06172839506172839,80.12345679012346,0)" xlink:href="#aP"/><use transform="matrix(0.06172839506172839,0,0,0.06172839506172839,91.23456790123457,0)" xlink:href="#aJ"/><use transform="matrix(0.06172839506172839,0,0,0.06172839506172839,96.11111111111111,0)" xlink:href="#aa"/><use transform="matrix(0.06172839506172839,0,0,0.06172839506172839,102.28395061728395,0)" xlink:href="#ab"/><use transform="matrix(0.06172839506172839,0,0,0.06172839506172839,114.62962962962963,0)" xlink:href="#bi"/><use transform="matrix(0.06172839506172839,0,0,0.06172839506172839,126.97530864197533,0)" xlink:href="#bl"/><use transform="matrix(0.06172839506172839,0,0,0.06172839506172839,142.96296296296296,0)" xlink:href="#ab"/><use transform="matrix(0.06172839506172839,0,0,0.06172839506172839,155.30864197530863,0)" xlink:href="#aJ"/><use transform="matrix(0.06172839506172839,0,0,0.06172839506172839,160.18518518518516,0)" xlink:href="#ba"/><use transform="matrix(0.06172839506172839,0,0,0.06172839506172839,172.53086419753083,0)" xlink:href="#aN"/><use transform="matrix(0.06172839506172839,0,0,0.06172839506172839,184.8765432098765,0)" xlink:href="#bg"/><use transform="matrix(0.06172839506172839,0,0,0.06172839506172839,197.22222222222217,0)" xlink:href="#Y"/><use transform="matrix(0.06172839506172839,0,0,0.06172839506172839,209.56790123456784,0)" xlink:href="#Z"/><use transform="matrix(0.06172839506172839,0,0,0.06172839506172839,221.9135802469135,0)" xlink:href="#ac"/><use transform="matrix(0.06172839506172839,0,0,0.06172839506172839,229.25925925925918,0)" xlink:href="#aP"/><use transform="matrix(0.06172839506172839,0,0,0.06172839506172839,240.3703703703703,0)" xlink:href="#aR"/><use transform="matrix(0.06172839506172839,0,0,0.06172839506172839,247.71604938271597,0)" xlink:href="#aS"/></g><g id="W"><use transform="matrix(0.04938271604938272,0,0,0.04938271604938272,0,0)" xlink:href="#aC"/><use transform="matrix(0.04938271604938272,0,0,0.04938271604938272,4.938271604938272,0)" xlink:href="#az"/><use transform="matrix(0.04938271604938272,0,0,0.04938271604938272,15.753086419753087,0)" xlink:href="#aT"/><use transform="matrix(0.04938271604938272,0,0,0.04938271604938272,25.629629629629633,0)" xlink:href="#as"/><use transform="matrix(0.04938271604938272,0,0,0.04938271604938272,35.50617283950618,0)" xlink:href="#aA"/><use transform="matrix(0.04938271604938272,0,0,0.04938271604938272,40.44444444444445,0)" xlink:href="#ai"/><use transform="matrix(0.04938271604938272,0,0,0.04938271604938272,45.38271604938272,0)" xlink:href="#ar"/><use transform="matrix(0.04938271604938272,0,0,0.04938271604938272,56.19753086419754,0)" xlink:href="#as"/><use transform="matrix(0.04938271604938272,0,0,0.04938271604938272,66.07407407407408,0)" xlink:href="#at"/><use transform="matrix(0.04938271604938272,0,0,0.04938271604938272,71.95061728395062,0)" xlink:href="#ah"/></g></defs></g></svg>