<svg xmlns="http://www.w3.org/2000/svg" xmlns:xlink="http://www.w3.org/1999/xlink" xmlns:lucid="lucid" width="1432.24" height="1047.76"><g transform="translate(-340 -40)" lucid:page-tab-id="SLrJ40PNDoic"><path d="M0 0h1870.4v1323.2H0z" fill="#fff"/><path d="M464.5 238.37c0 14.42-11.7 26.12-26.13 26.12s-26.13-11.7-26.13-26.13 11.7-26.13 26.13-26.13c14.42 0 26.12 11.7 26.12 26.13z" stroke="#5e5e5e" stroke-width="3" fill="#fff"/><use xlink:href="#a" transform="matrix(1,0,0,1,417.24489795918373,217.24489795918367) translate(14.092592592592593 25.84027777777778)"/><path d="M1000 290.6c0 14.44-11.7 26.13-26.12 26.13-14.43 0-26.12-11.7-26.12-26.12 0-14.4 11.7-26.1 26.12-26.1 14.42 0 26.12 11.7 26.12 26.1z" stroke="#5e5e5e" stroke-width="3" fill="#fff"/><use xlink:href="#b" transform="matrix(1,0,0,1,952.7551020408164,269.48979591836735) translate(14.74074074074074 25.84027777777778)"/><path d="M412.24 591.02c0 14.43-11.7 26.12-26.12 26.12-14.42 0-26.12-11.7-26.12-26.12 0-14.43 11.7-26.12 26.12-26.12 14.43 0 26.12 11.7 26.12 26.12z" stroke="#5e5e5e" stroke-width="3" fill="#fff"/><use xlink:href="#c" transform="matrix(1,0,0,1,365,569.8979591836735) translate(13.506172839506174 25.84027777777778)"/><path d="M869.4 473.47c0 14.43-11.7 26.12-26.13 26.12s-26.13-11.7-26.13-26.13 11.7-26.12 26.13-26.12c14.42 0 26.12 11.7 26.12 26.12z" stroke="#5e5e5e" stroke-width="3" fill="#fff"/><use xlink:href="#d" transform="matrix(1,0,0,1,822.1428571428571,452.3469387755102) translate(13.506172839506174 25.84027777777778)"/><path d="M843.27 682.45c0 14.43-11.7 26.12-26.13 26.12-14.42 0-26.12-11.7-26.12-26.12 0-14.43 11.7-26.12 26.12-26.12 14.43 0 26.13 11.7 26.13 26.12z" stroke="#5e5e5e" stroke-width="3" fill="#fff"/><use xlink:href="#e" transform="matrix(1,0,0,1,796.0204081632653,661.3265306122448) translate(14.092592592592593 25.84027777777778)"/><path d="M595.1 382.04c0 14.43-11.7 26.12-26.12 26.12-14.43 0-26.12-11.7-26.12-26.12 0-14.43 11.7-26.12 26.12-26.12 14.43 0 26.12 11.7 26.12 26.12z" stroke="#5e5e5e" stroke-width="3" fill="#fff"/><use xlink:href="#f" transform="matrix(1,0,0,1,547.8571428571429,360.9183673469388) translate(14.092592592592593 25.84027777777778)"/><path d="M486.5 240.6l439.26 47.78" stroke="#5e5e5e" stroke-width="3" fill="none"/><path d="M470.82 238.9l14.68-3.07-1 9.2zM941.43 290.1l-14.68 3.05 1-9.2z" stroke="#5e5e5e" stroke-width="3" fill="#5e5e5e"/><path d="M388.76 542.95l33.5-260.14" stroke="#5e5e5e" stroke-width="3" fill="none"/><path d="M386.74 558.58l-2.77-14.74 9.2 1.2zM424.27 267.18l2.77 14.74-9.2-1.2z" stroke="#5e5e5e" stroke-width="3" fill="#5e5e5e"/><path d="M616.76 377.68l313.77-67.85" stroke="#5e5e5e" stroke-width="3" fill="none"/><path d="M601.35 381l12.96-7.53 1.97 9.06zM945.94 306.5l-12.96 7.54-1.96-9.06z" stroke="#5e5e5e" stroke-width="3" fill="#5e5e5e"/><path d="M798.8 455.5l-185.57-55.06" stroke="#5e5e5e" stroke-width="3" fill="none"/><path d="M813.9 459.98l-15 .38 2.65-8.9zM598.12 395.96l15-.4-2.64 8.9z" stroke="#5e5e5e" stroke-width="3" fill="#5e5e5e"/><path d="M870.35 433.64l77.85-102.47" stroke="#5e5e5e" stroke-width="3" fill="none"/><path d="M860.8 446.2l4.95-14.17 7.38 5.6zM957.74 318.62l-4.94 14.16-7.38-5.6z" stroke="#5e5e5e" stroke-width="3" fill="#5e5e5e"/><path d="M840.22 640.34l125.75-303.06" stroke="#5e5e5e" stroke-width="3" fill="none"/><path d="M834.18 654.9l1.2-14.95 8.55 3.55zM972.02 322.72l-1.2 14.95-8.55-3.55z" stroke="#5e5e5e" stroke-width="3" fill="#5e5e5e"/><path d="M592.56 423.16l195.82 220.8" stroke="#5e5e5e" stroke-width="3" fill="none"/><path d="M582.1 411.36l12.94 7.6-6.94 6.15zM798.84 655.75l-12.93-7.6 6.94-6.15z" stroke="#5e5e5e" stroke-width="3" fill="#5e5e5e"/><path d="M800.48 494.06L433.75 586" stroke="#5e5e5e" stroke-width="3" fill="none"/><path d="M815.78 490.23l-12.72 7.96-2.25-9zM418.45 589.84l12.7-7.97 2.27 9z" stroke="#5e5e5e" stroke-width="3" fill="#5e5e5e"/><path d="M1472.24 186.12c0 14.43-11.7 26.12-26.12 26.12-14.42 0-26.12-11.7-26.12-26.12 0-14.42 11.7-26.12 26.12-26.12 14.43 0 26.12 11.7 26.12 26.12z" stroke="#5e5e5e" stroke-width="3" fill="#fff"/><use xlink:href="#f" transform="matrix(1,0,0,1,1425,165) translate(14.092592592592593 25.84027777777778)"/><path d="M1332.24 362.04c0 14.43-11.7 26.12-26.12 26.12-14.42 0-26.12-11.7-26.12-26.12 0-14.43 11.7-26.12 26.12-26.12 14.43 0 26.12 11.7 26.12 26.12z" stroke="#5e5e5e" stroke-width="3" fill="#fff"/><use xlink:href="#e" transform="matrix(1,0,0,1,1285,340.9183673469388) translate(14.092592592592593 25.84027777777778)"/><path d="M1472.24 362.04c0 14.43-11.7 26.12-26.12 26.12-14.42 0-26.12-11.7-26.12-26.12 0-14.43 11.7-26.12 26.12-26.12 14.43 0 26.12 11.7 26.12 26.12z" stroke="#5e5e5e" stroke-width="3" fill="#fff"/><use xlink:href="#d" transform="matrix(1,0,0,1,1425,340.9183673469388) translate(13.506172839506174 25.84027777777778)"/><path d="M1612.24 362.04c0 14.43-11.7 26.12-26.12 26.12-14.42 0-26.12-11.7-26.12-26.12 0-14.43 11.7-26.12 26.12-26.12 14.43 0 26.12 11.7 26.12 26.12z" stroke="#5e5e5e" stroke-width="3" fill="#fff"/><use xlink:href="#b" transform="matrix(1,0,0,1,1565,340.9183673469388) translate(14.74074074074074 25.84027777777778)"/><path d="M1426.4 206.86l-88.02 122.94" stroke="#0c7cba" stroke-width="2" fill="none"/><path d="M1426.98 206.04l.78.63-.57.8-1.63-1.17.74-1.04z" fill="#0c7cba"/><path d="M1329.5 342.2l4.53-14.28 7.54 5.4z" stroke="#0c7cba" stroke-width="2" fill="#0c7cba"/><path d="M1446.12 214.75v101.17" stroke="#0c7cba" stroke-width="2" fill="none"/><path d="M1446.07 213.75l1.05-.02v1.04h-2v-1.1z" fill="#0c7cba"/><path d="M1446.12 331.18l-4.63-14.26h9.26z" stroke="#0c7cba" stroke-width="2" fill="#0c7cba"/><path d="M1467.16 205.43l93.24 118.55" stroke="#0c7cba" stroke-width="2" fill="none"/><path d="M1467.96 204.83l-1.57 1.23-.52-.65.16-.13 1.14-1.44z" fill="#0c7cba"/><path d="M1569.84 335.98l-12.47-8.35 7.3-5.73z" stroke="#0c7cba" stroke-width="2" fill="#0c7cba"/><path d="M1252.24 518.78c0 14.42-11.7 26.12-26.12 26.12-14.42 0-26.12-11.7-26.12-26.12 0-14.43 11.7-26.13 26.12-26.13 14.43 0 26.12 11.7 26.12 26.13z" stroke="#5e5e5e" stroke-width="3" fill="#fff"/><use xlink:href="#b" transform="matrix(1,0,0,1,1205,497.6530612244899) translate(14.74074074074074 25.84027777777778)"/><path d="M1293.96 387.84l-57.68 87.85" stroke="#7ab648" stroke-width="2" fill="none"/><path d="M1295.4 387.47l-.62.94-1.67-1.1.5-.76z" fill="#7ab648"/><path d="M1227.9 488.45l3.95-14.47 7.75 5.1z" stroke="#7ab648" stroke-width="2" fill="#7ab648"/><path d="M1192.24 646.12c0 14.43-11.7 26.12-26.12 26.12-14.42 0-26.12-11.7-26.12-26.12 0-14.42 11.7-26.12 26.12-26.12 14.43 0 26.12 11.7 26.12 26.12z" stroke="#5e5e5e" stroke-width="3" fill="#fff"/><use xlink:href="#g" transform="matrix(1,0,0,1,1145,625) translate(14.092592592592593 25.84027777777778)"/><path d="M1192.24 770.2c0 14.43-11.7 26.13-26.12 26.13-14.42 0-26.12-11.7-26.12-26.13 0-14.42 11.7-26.12 26.12-26.12 14.43 0 26.12 11.7 26.12 26.12z" stroke="#5e5e5e" stroke-width="3" fill="#fff"/><use xlink:href="#h" transform="matrix(1,0,0,1,1145,749.0816326530612) translate(13.506172839506174 25.84027777777778)"/><path d="M1207.7 540.53l-32.87 61.64" stroke="#ef8d22" stroke-width="2" fill="none"/><path d="M1208.98 540.28l-.4.74-1.77-.94.58-1.06z" fill="#ef8d22"/><path d="M1167.65 615.64l2.62-14.76 8.18 4.36z" stroke="#ef8d22" stroke-width="2" fill="#ef8d22"/><path d="M1166.12 674.75v49.33" stroke="#c92d39" stroke-width="2" fill="none"/><path d="M1166.07 673.75l1.05-.02v1.04h-2v-1.1z" fill="#c92d39"/><path d="M1166.12 739.35l-4.63-14.27h9.26z" stroke="#c92d39" stroke-width="2" fill="#c92d39"/><path d="M1472.24 518.78c0 14.42-11.7 26.12-26.12 26.12-14.42 0-26.12-11.7-26.12-26.12 0-14.43 11.7-26.13 26.12-26.13 14.43 0 26.12 11.7 26.12 26.13z" stroke="#5e5e5e" stroke-width="3" fill="#fff"/><use xlink:href="#b" transform="matrix(1,0,0,1,1425,497.6530612244898) translate(14.74074074074074 25.84027777777778)"/><path d="M1420 646.12c0 14.43-11.7 26.12-26.12 26.12-14.43 0-26.12-11.7-26.12-26.12 0-14.42 11.7-26.12 26.12-26.12 14.42 0 26.12 11.7 26.12 26.12z" stroke="#5e5e5e" stroke-width="3" fill="#fff"/><use xlink:href="#g" transform="matrix(1,0,0,1,1372.7551020408164,625) translate(14.092592592592593 25.84027777777778)"/><path d="M1420 770.2c0 14.43-11.7 26.13-26.12 26.13-14.43 0-26.12-11.7-26.12-26.13 0-14.42 11.7-26.12 26.12-26.12 14.42 0 26.12 11.7 26.12 26.12z" stroke="#5e5e5e" stroke-width="3" fill="#fff"/><use xlink:href="#h" transform="matrix(1,0,0,1,1372.7551020408164,749.0816326530612) translate(13.506172839506174 25.84027777777778)"/><path d="M1427.76 540.55l-26.5 60.98" stroke="#ef8d22" stroke-width="2" fill="none"/><path d="M1428.97 540.27l-.3.7-1.84-.8.5-1.18z" fill="#ef8d22"/><path d="M1395.17 615.53l1.43-14.93 8.5 3.7z" stroke="#ef8d22" stroke-width="2" fill="#ef8d22"/><path d="M1393.88 674.75v49.33" stroke="#c92d39" stroke-width="2" fill="none"/><path d="M1393.82 673.75l1.06-.02v1.04h-2v-1.1z" fill="#c92d39"/><path d="M1393.88 739.35l-4.64-14.27h9.27z" stroke="#c92d39" stroke-width="2" fill="#c92d39"/><path d="M1446.12 390.66v82" stroke="#7ab648" stroke-width="2" fill="none"/><path d="M1446.07 389.66l1.05-.02v1.05h-2v-1.13z" fill="#7ab648"/><path d="M1446.12 487.92l-4.63-14.27h9.26z" stroke="#7ab648" stroke-width="2" fill="#7ab648"/><path d="M1192.24 894.3c0 14.4-11.7 26.1-26.12 26.1-14.42 0-26.12-11.7-26.12-26.1 0-14.44 11.7-26.14 26.12-26.14 14.43 0 26.12 11.7 26.12 26.13z" stroke="#5e5e5e" stroke-width="3" fill="#fff"/><use xlink:href="#d" transform="matrix(1,0,0,1,1145,873.1632653061224) translate(13.506172839506174 25.84027777777778)"/><path d="M1166.12 798.83v49.33" stroke="#834187" stroke-width="2" fill="none"/><path d="M1166.07 797.83l1.05-.02v1.05h-2v-1.1z" fill="#834187"/><path d="M1166.12 863.43l-4.63-14.27h9.26z" stroke="#834187" stroke-width="2" fill="#834187"/><path d="M1312.24 646.12c0 14.43-11.7 26.12-26.12 26.12-14.42 0-26.12-11.7-26.12-26.12 0-14.42 11.7-26.12 26.12-26.12 14.43 0 26.12 11.7 26.12 26.12z" stroke="#5e5e5e" stroke-width="3" fill="#fff"/><use xlink:href="#d" transform="matrix(1,0,0,1,1265,625) translate(13.506172839506174 25.84027777777778)"/><path d="M1246.63 538.62l29.45 63.27" stroke="#ef8d22" stroke-width="2" fill="none"/><path d="M1247.54 538.23l-1.8.84-.3-.63.6-.52.86-1.08z" fill="#ef8d22"/><path d="M1282.52 615.73l-10.22-10.97 8.4-3.92z" stroke="#ef8d22" stroke-width="2" fill="#ef8d22"/><path d="M1312.24 770.2c0 14.43-11.7 26.13-26.12 26.13-14.42 0-26.12-11.7-26.12-26.13 0-14.42 11.7-26.12 26.12-26.12 14.43 0 26.12 11.7 26.12 26.12z" stroke="#5e5e5e" stroke-width="3" fill="#fff"/><use xlink:href="#h" transform="matrix(1,0,0,1,1265,749.0816326530612) translate(13.506172839506174 25.84027777777778)"/><path d="M1286.12 674.75v49.33" stroke="#c92d39" stroke-width="2" fill="none"/><path d="M1286.07 673.75l1.05-.02v1.04h-2v-1.1z" fill="#c92d39"/><path d="M1286.12 739.35l-4.63-14.27h9.26z" stroke="#c92d39" stroke-width="2" fill="#c92d39"/><path d="M1312.24 894.3c0 14.4-11.7 26.1-26.12 26.1-14.42 0-26.12-11.7-26.12-26.1 0-14.44 11.7-26.14 26.12-26.14 14.43 0 26.12 11.7 26.12 26.13z" stroke="#5e5e5e" stroke-width="3" fill="#fff"/><use xlink:href="#g" transform="matrix(1,0,0,1,1265,873.1632653061224) translate(14.092592592592593 25.84027777777778)"/><path d="M1286.12 798.83v49.33" stroke="#834187" stroke-width="2" fill="none"/><path d="M1286.07 797.83l1.05-.02v1.05h-2v-1.1z" fill="#834187"/><path d="M1286.12 863.43l-4.63-14.27h9.26z" stroke="#834187" stroke-width="2" fill="#834187"/><path d="M1532.24 646.12c0 14.43-11.7 26.12-26.12 26.12-14.42 0-26.12-11.7-26.12-26.12 0-14.42 11.7-26.12 26.12-26.12 14.43 0 26.12 11.7 26.12 26.12z" stroke="#5e5e5e" stroke-width="3" fill="#fff"/><use xlink:href="#i" transform="matrix(1,0,0,1,1485,625) translate(14.092592592592593 25.84027777777778)"/><path d="M1464.52 540.5l32.9 61.68" stroke="#ef8d22" stroke-width="2" fill="none"/><path d="M1465.42 540.06l-1.77.95-.38-.7 1.56-1.34z" fill="#ef8d22"/><path d="M1504.6 615.64l-10.8-10.4 8.18-4.36z" stroke="#ef8d22" stroke-width="2" fill="#ef8d22"/><path d="M1612.24 518.78c0 14.42-11.7 26.12-26.12 26.12-14.42 0-26.12-11.7-26.12-26.12 0-14.43 11.7-26.13 26.12-26.13 14.43 0 26.12 11.7 26.12 26.13z" stroke="#5e5e5e" stroke-width="3" fill="#fff"/><use xlink:href="#g" transform="matrix(1,0,0,1,1565,497.6530612244899) translate(14.092592592592593 25.84027777777778)"/><path d="M1612.24 642.86c0 14.42-11.7 26.12-26.12 26.12-14.42 0-26.12-11.7-26.12-26.12 0-14.43 11.7-26.13 26.12-26.13 14.43 0 26.12 11.7 26.12 26.13z" stroke="#5e5e5e" stroke-width="3" fill="#fff"/><use xlink:href="#h" transform="matrix(1,0,0,1,1565,621.7346938775511) translate(13.506172839506174 25.84027777777778)"/><path d="M1586.12 390.66v82" stroke="#7ab648" stroke-width="2" fill="none"/><path d="M1586.07 389.66l1.05-.02v1.05h-2v-1.13z" fill="#7ab648"/><path d="M1586.12 487.92l-4.63-14.27h9.26z" stroke="#7ab648" stroke-width="2" fill="#7ab648"/><path d="M1586.12 547.4v49.33" stroke="#ef8d22" stroke-width="2" fill="none"/><path d="M1586.07 546.4l1.05-.02v1.04h-2v-1.1z" fill="#ef8d22"/><path d="M1586.12 612l-4.63-14.27h9.26z" stroke="#ef8d22" stroke-width="2" fill="#ef8d22"/><path d="M1752.24 518.78c0 14.42-11.7 26.12-26.12 26.12-14.42 0-26.12-11.7-26.12-26.12 0-14.43 11.7-26.13 26.12-26.13 14.43 0 26.12 11.7 26.12 26.13z" stroke="#5e5e5e" stroke-width="3" fill="#fff"/><use xlink:href="#i" transform="matrix(1,0,0,1,1705,497.6530612244899) translate(14.092592592592593 25.84027777777778)"/><path d="M1605.25 383.17l107.07 95.66" stroke="#7ab648" stroke-width="2" fill="none"/><path d="M1605.93 382.45l-1.33 1.5-.86-.78 1.53-1.32z" fill="#7ab648"/><path d="M1723.7 489l-13.72-6.05 6.18-6.9z" stroke="#7ab648" stroke-width="2" fill="#7ab648"/><path d="M1612.24 770.2c0 14.43-11.7 26.13-26.12 26.13-14.42 0-26.12-11.7-26.12-26.13 0-14.42 11.7-26.12 26.12-26.12 14.43 0 26.12 11.7 26.12 26.12z" stroke="#5e5e5e" stroke-width="3" fill="#fff"/><use xlink:href="#d" transform="matrix(1,0,0,1,1565,749.0816326530612) translate(13.506172839506174 25.84027777777778)"/><path d="M1586.12 671.48v52.6" stroke="#c92d39" stroke-width="2" fill="none"/><path d="M1586.07 670.48l1.05-.02v1.05h-2v-1.1z" fill="#c92d39"/><path d="M1586.12 739.35l-4.63-14.27h9.26z" stroke="#c92d39" stroke-width="2" fill="#c92d39"/><path d="M1372.24 1006c0-3.3 2.7-6 6-6h148c3.32 0 6 2.7 6 6v55.76c0 3.3-2.68 6-6 6h-148c-3.3 0-6-2.7-6-6z" stroke="#5e5e5e" stroke-width="3" fill="#ffbbb1"/><use xlink:href="#j" transform="matrix(1,0,0,1,1384.2448979591836,1012) translate(-3.0493827160493794 26.444444444444443)"/><path d="M1726.12 547.4V954c0 3.3-2.68 6-6 6h-261.88c-3.3 0-6 2.7-6 6v14" stroke="#5e5e5e" stroke-width="2" fill="none"/><path d="M1726.07 546.4l1.05-.02v1.04h-2v-1.1z" fill="#5e5e5e"/><path d="M1452.24 995.26L1447.6 981h9.28z" stroke="#5e5e5e" stroke-width="2" fill="#5e5e5e"/><path d="M1586.12 798.83V894c0 3.3-2.68 6-6 6h-121.88c-3.3 0-6 2.7-6 6v74" stroke="#5e5e5e" stroke-width="2" fill="none"/><path d="M1586.07 797.83l1.05-.02v1.05h-2v-1.1z" fill="#5e5e5e"/><path d="M1452.24 995.26L1447.6 981h9.28z" stroke="#5e5e5e" stroke-width="2" fill="#5e5e5e"/><path d="M1506.12 674.75v155.37c0 3.32-2.68 6-6 6h-41.88c-3.3 0-6 2.7-6 6V980" stroke="#5e5e5e" stroke-width="2" fill="none"/><path d="M1506.07 673.75l1.05-.02v1.04h-2v-1.1z" fill="#5e5e5e"/><path d="M1452.24 995.26L1447.6 981h9.28z" stroke="#5e5e5e" stroke-width="2" fill="#5e5e5e"/><path d="M1393.88 798.83V894c0 3.3 2.68 6 6 6h46.36c3.32 0 6 2.7 6 6v74" stroke="#5e5e5e" stroke-width="2" fill="none"/><path d="M1393.82 797.83l1.06-.02v1.05h-2v-1.1z" fill="#5e5e5e"/><path d="M1452.24 995.26L1447.6 981h9.28z" stroke="#5e5e5e" stroke-width="2" fill="#5e5e5e"/><path d="M1286.12 922.9v31.3c0 3.32 2.7 6 6 6h154.12c3.32 0 6 2.7 6 6V980" stroke="#5e5e5e" stroke-width="2" fill="none"/><path d="M1286.07 921.9h1.05v1.03h-2v-1.1z" fill="#5e5e5e"/><path d="M1452.24 995.26L1447.6 981h9.28z" stroke="#5e5e5e" stroke-width="2" fill="#5e5e5e"/><path d="M1166.12 922.9v31.3c0 3.32 2.7 6 6 6h274.12c3.32 0 6 2.7 6 6V980" stroke="#5e5e5e" stroke-width="2" fill="none"/><path d="M1166.07 921.9h1.05v1.03h-2v-1.1z" fill="#5e5e5e"/><path d="M1452.24 995.26L1447.6 981h9.28z" stroke="#5e5e5e" stroke-width="2" fill="#5e5e5e"/><path d="M1326.12 66c0-3.3 2.7-6 6-6h228c3.32 0 6 2.7 6 6v51.33c0 3.32-2.68 6-6 6h-228c-3.3 0-6-2.68-6-6z" stroke="#000" stroke-opacity="0" stroke-width="3" fill="#fff" fill-opacity="0"/><use xlink:href="#k" transform="matrix(1,0,0,1,1331.1224489795918,65) translate(31.759259259259252 17.77777777777778)"/><use xlink:href="#l" transform="matrix(1,0,0,1,1331.1224489795918,65) translate(126.69753086419753 17.77777777777778)"/><use xlink:href="#m" transform="matrix(1,0,0,1,1331.1224489795918,65) translate(3.7962962962962905 44.44444444444444)"/><use xlink:href="#n" transform="matrix(1,0,0,1,1331.1224489795918,65) translate(100.03086419753087 44.44444444444444)"/><use xlink:href="#o" transform="matrix(1,0,0,1,1331.1224489795918,65) translate(181.45061728395063 44.44444444444444)"/><path d="M1321 120h258M1321.03 120H1320M1578.97 120h1.03" stroke="#5e5e5e" stroke-width="2" fill="none"/><path d="M589.4 186c0-3.3 2.67-6 6-6h228c3.3 0 6 2.7 6 6v33.54c0 3.32-2.7 6-6 6h-228c-3.33 0-6-2.68-6-6z" stroke="#000" stroke-opacity="0" stroke-width="3" fill="#fff" fill-opacity="0"/><use xlink:href="#p" transform="matrix(1,0,0,1,594.3877551020407,185) translate(26.882716049382708 22.27777777777778)"/><use xlink:href="#q" transform="matrix(1,0,0,1,594.3877551020407,185) translate(114.35185185185183 22.27777777777778)"/><path d="M584.27 214.46h258M584.3 214.46h-1.03M842.24 214.46h1.03" stroke="#5e5e5e" stroke-width="2" fill="none"/><defs><path fill="#333" d="M160-131c35 5 61 23 61 61C221 17 115-2 30 0v-248c76 3 177-17 177 60 0 33-19 50-47 57zm-97-11c50-1 110 9 110-42 0-47-63-36-110-37v79zm0 115c55-2 124 14 124-45 0-56-70-42-124-44v89" id="r"/><use transform="matrix(0.06172839506172839,0,0,0.06172839506172839,0,0)" xlink:href="#r" id="a"/><path fill="#333" d="M63-220v92h138v28H63V0H30v-248h175v28H63" id="s"/><use transform="matrix(0.06172839506172839,0,0,0.06172839506172839,0,0)" xlink:href="#s" id="b"/><path fill="#333" d="M212-179c-10-28-35-45-73-45-59 0-87 40-87 99 0 60 29 101 89 101 43 0 62-24 78-52l27 14C228-24 195 4 139 4 59 4 22-46 18-125c-6-104 99-153 187-111 19 9 31 26 39 46" id="t"/><use transform="matrix(0.06172839506172839,0,0,0.06172839506172839,0,0)" xlink:href="#t" id="c"/><path fill="#333" d="M30-248c118-7 216 8 213 122C240-48 200 0 122 0H30v-248zM63-27c89 8 146-16 146-99s-60-101-146-95v194" id="u"/><use transform="matrix(0.06172839506172839,0,0,0.06172839506172839,0,0)" xlink:href="#u" id="d"/><path fill="#333" d="M30 0v-248h187v28H63v79h144v27H63v87h162V0H30" id="v"/><use transform="matrix(0.06172839506172839,0,0,0.06172839506172839,0,0)" xlink:href="#v" id="e"/><path fill="#333" d="M205 0l-28-72H64L36 0H1l101-248h38L239 0h-34zm-38-99l-47-123c-12 45-31 82-46 123h93" id="w"/><use transform="matrix(0.06172839506172839,0,0,0.06172839506172839,0,0)" xlink:href="#w" id="f"/><use transform="matrix(0.06172839506172839,0,0,0.06172839506172839,0,0)" xlink:href="#r" id="g"/><use transform="matrix(0.06172839506172839,0,0,0.06172839506172839,0,0)" xlink:href="#t" id="h"/><use transform="matrix(0.06172839506172839,0,0,0.06172839506172839,0,0)" xlink:href="#v" id="i"/><path fill="#333" d="M33 0v-248h34V0H33" id="x"/><path fill="#333" d="M190 0L58-211 59 0H30v-248h39L202-35l-2-213h31V0h-41" id="y"/><path fill="#333" d="M137 0h-34L2-248h35l83 218 83-218h36" id="z"/><path fill="#333" d="M30 0v-248h33v221h125V0H30" id="A"/><path fill="#333" d="M127-220V0H93v-220H8v-28h204v28h-85" id="B"/><g id="j"><use transform="matrix(0.06172839506172839,0,0,0.06172839506172839,0,0)" xlink:href="#x"/><use transform="matrix(0.06172839506172839,0,0,0.06172839506172839,6.172839506172839,0)" xlink:href="#y"/><use transform="matrix(0.06172839506172839,0,0,0.06172839506172839,22.160493827160494,0)" xlink:href="#z"/><use transform="matrix(0.06172839506172839,0,0,0.06172839506172839,35.30864197530864,0)" xlink:href="#w"/><use transform="matrix(0.06172839506172839,0,0,0.06172839506172839,50.123456790123456,0)" xlink:href="#A"/><use transform="matrix(0.06172839506172839,0,0,0.06172839506172839,62.46913580246913,0)" xlink:href="#x"/><use transform="matrix(0.06172839506172839,0,0,0.06172839506172839,68.64197530864197,0)" xlink:href="#u"/><use transform="matrix(0.06172839506172839,0,0,0.06172839506172839,84.62962962962963,0)" xlink:href="#w"/><use transform="matrix(0.06172839506172839,0,0,0.06172839506172839,97.77777777777777,0)" xlink:href="#B"/><use transform="matrix(0.06172839506172839,0,0,0.06172839506172839,111.29629629629629,0)" xlink:href="#v"/><use transform="matrix(0.06172839506172839,0,0,0.06172839506172839,126.1111111111111,0)" xlink:href="#u"/></g><path fill="#333" d="M100-194c62-1 85 37 85 99 1 63-27 99-86 99S16-35 15-95c0-66 28-99 85-99zM99-20c44 1 53-31 53-75 0-43-8-75-51-75s-53 32-53 75 10 74 51 75" id="C"/><path fill="#333" d="M115-194c55 1 70 41 70 98S169 2 115 4C84 4 66-9 55-30l1 105H24l-1-265h31l2 30c10-21 28-34 59-34zm-8 174c40 0 45-34 45-75s-6-73-45-74c-42 0-51 32-51 76 0 43 10 73 51 73" id="D"/><path fill="#333" d="M24 0v-261h32V0H24" id="E"/><path fill="#333" d="M177-190C167-65 218 103 67 71c-23-6-38-20-44-43l32-5c15 47 100 32 89-28v-30C133-14 115 1 83 1 29 1 15-40 15-95c0-56 16-97 71-98 29-1 48 16 59 35 1-10 0-23 2-32h30zM94-22c36 0 50-32 50-73 0-42-14-75-50-75-39 0-46 34-46 75s6 73 46 73" id="F"/><path fill="#333" d="M179-190L93 31C79 59 56 82 12 73V49c39 6 53-20 64-50L1-190h34L92-34l54-156h33" id="G"/><g id="k"><use transform="matrix(0.06172839506172839,0,0,0.06172839506172839,0,0)" xlink:href="#B"/><use transform="matrix(0.06172839506172839,0,0,0.06172839506172839,11.049382716049381,0)" xlink:href="#C"/><use transform="matrix(0.06172839506172839,0,0,0.06172839506172839,23.39506172839506,0)" xlink:href="#D"/><use transform="matrix(0.06172839506172839,0,0,0.06172839506172839,35.74074074074074,0)" xlink:href="#C"/><use transform="matrix(0.06172839506172839,0,0,0.06172839506172839,48.08641975308642,0)" xlink:href="#E"/><use transform="matrix(0.06172839506172839,0,0,0.06172839506172839,52.96296296296296,0)" xlink:href="#C"/><use transform="matrix(0.06172839506172839,0,0,0.06172839506172839,65.30864197530865,0)" xlink:href="#F"/><use transform="matrix(0.06172839506172839,0,0,0.06172839506172839,77.65432098765433,0)" xlink:href="#G"/></g><path fill="#333" d="M232-93c-1 65-40 97-104 97C67 4 28-28 28-90v-158h33c8 89-33 224 67 224 102 0 64-133 71-224h33v155" id="H"/><path fill="#333" d="M85-194c31 0 48 13 60 33l-1-100h32l1 261h-30c-2-10 0-23-3-31C134-8 116 4 85 4 32 4 16-35 15-94c0-66 23-100 70-100zm9 24c-40 0-46 34-46 75 0 40 6 74 45 74 42 0 51-32 51-76 0-42-9-74-50-73" id="I"/><path fill="#333" d="M141-36C126-15 110 5 73 4 37 3 15-17 15-53c-1-64 63-63 125-63 3-35-9-54-41-54-24 1-41 7-42 31l-33-3c5-37 33-52 76-52 45 0 72 20 72 64v82c-1 20 7 32 28 27v20c-31 9-61-2-59-35zM48-53c0 20 12 33 32 33 41-3 63-29 60-74-43 2-92-5-92 41" id="J"/><path fill="#333" d="M59-47c-2 24 18 29 38 22v24C64 9 27 4 27-40v-127H5v-23h24l9-43h21v43h35v23H59v120" id="K"/><path fill="#333" d="M100-194c63 0 86 42 84 106H49c0 40 14 67 53 68 26 1 43-12 49-29l28 8c-11 28-37 45-77 45C44 4 14-33 15-96c1-61 26-98 85-98zm52 81c6-60-76-77-97-28-3 7-6 17-6 28h103" id="L"/><g id="l"><use transform="matrix(0.06172839506172839,0,0,0.06172839506172839,0,0)" xlink:href="#H"/><use transform="matrix(0.06172839506172839,0,0,0.06172839506172839,15.987654320987653,0)" xlink:href="#D"/><use transform="matrix(0.06172839506172839,0,0,0.06172839506172839,28.333333333333332,0)" xlink:href="#I"/><use transform="matrix(0.06172839506172839,0,0,0.06172839506172839,40.67901234567901,0)" xlink:href="#J"/><use transform="matrix(0.06172839506172839,0,0,0.06172839506172839,53.02469135802469,0)" xlink:href="#K"/><use transform="matrix(0.06172839506172839,0,0,0.06172839506172839,59.19753086419753,0)" xlink:href="#L"/></g><path fill="#333" d="M240 0l2-218c-23 76-54 145-80 218h-23L58-218 59 0H30v-248h44l77 211c21-75 51-140 76-211h43V0h-30" id="M"/><path fill="#333" d="M135-143c-3-34-86-38-87 0 15 53 115 12 119 90S17 21 10-45l28-5c4 36 97 45 98 0-10-56-113-15-118-90-4-57 82-63 122-42 12 7 21 19 24 35" id="N"/><g id="m"><use transform="matrix(0.06172839506172839,0,0,0.06172839506172839,0,0)" xlink:href="#M"/><use transform="matrix(0.06172839506172839,0,0,0.06172839506172839,18.456790123456788,0)" xlink:href="#L"/><use transform="matrix(0.06172839506172839,0,0,0.06172839506172839,30.80246913580247,0)" xlink:href="#N"/><use transform="matrix(0.06172839506172839,0,0,0.06172839506172839,41.91358024691358,0)" xlink:href="#N"/><use transform="matrix(0.06172839506172839,0,0,0.06172839506172839,53.0246913580247,0)" xlink:href="#J"/><use transform="matrix(0.06172839506172839,0,0,0.06172839506172839,65.37037037037038,0)" xlink:href="#F"/><use transform="matrix(0.06172839506172839,0,0,0.06172839506172839,77.71604938271606,0)" xlink:href="#L"/></g><path fill="#333" d="M30-248c87 1 191-15 191 75 0 78-77 80-158 76V0H30v-248zm33 125c57 0 124 11 124-50 0-59-68-47-124-48v98" id="O"/><path fill="#333" d="M106-169C34-169 62-67 57 0H25v-261h32l-1 103c12-21 28-36 61-36 89 0 53 116 60 194h-32v-121c2-32-8-49-39-48" id="P"/><path fill="#333" d="M24-231v-30h32v30H24zM24 0v-190h32V0H24" id="Q"/><path fill="#333" d="M117-194c89-4 53 116 60 194h-32v-121c0-31-8-49-39-48C34-167 62-67 57 0H25l-1-190h30c1 10-1 24 2 32 11-22 29-35 61-36" id="R"/><g id="n"><use transform="matrix(0.06172839506172839,0,0,0.06172839506172839,0,0)" xlink:href="#O"/><use transform="matrix(0.06172839506172839,0,0,0.06172839506172839,14.814814814814813,0)" xlink:href="#J"/><use transform="matrix(0.06172839506172839,0,0,0.06172839506172839,27.160493827160494,0)" xlink:href="#K"/><use transform="matrix(0.06172839506172839,0,0,0.06172839506172839,33.333333333333336,0)" xlink:href="#P"/><use transform="matrix(0.06172839506172839,0,0,0.06172839506172839,45.67901234567901,0)" xlink:href="#Q"/><use transform="matrix(0.06172839506172839,0,0,0.06172839506172839,50.55555555555556,0)" xlink:href="#R"/><use transform="matrix(0.06172839506172839,0,0,0.06172839506172839,62.901234567901234,0)" xlink:href="#F"/></g><path fill="#333" d="M114-163C36-179 61-72 57 0H25l-1-190h30c1 12-1 29 2 39 6-27 23-49 58-41v29" id="S"/><g id="o"><use transform="matrix(0.06172839506172839,0,0,0.06172839506172839,0,0)" xlink:href="#B"/><use transform="matrix(0.06172839506172839,0,0,0.06172839506172839,12.716049382716047,0)" xlink:href="#S"/><use transform="matrix(0.06172839506172839,0,0,0.06172839506172839,20.061728395061728,0)" xlink:href="#L"/><use transform="matrix(0.06172839506172839,0,0,0.06172839506172839,32.407407407407405,0)" xlink:href="#L"/></g><path fill="#333" d="M206 0h-36l-40-164L89 0H53L-1-190h32L70-26l43-164h34l41 164 42-164h31" id="T"/><path fill="#333" d="M143 0L79-87 56-68V0H24v-261h32v163l83-92h37l-77 82L181 0h-38" id="U"/><g id="p"><use transform="matrix(0.06172839506172839,0,0,0.06172839506172839,0,0)" xlink:href="#y"/><use transform="matrix(0.06172839506172839,0,0,0.06172839506172839,15.987654320987653,0)" xlink:href="#L"/><use transform="matrix(0.06172839506172839,0,0,0.06172839506172839,28.333333333333332,0)" xlink:href="#K"/><use transform="matrix(0.06172839506172839,0,0,0.06172839506172839,34.50617283950617,0)" xlink:href="#T"/><use transform="matrix(0.06172839506172839,0,0,0.06172839506172839,50.49382716049382,0)" xlink:href="#C"/><use transform="matrix(0.06172839506172839,0,0,0.06172839506172839,62.8395061728395,0)" xlink:href="#S"/><use transform="matrix(0.06172839506172839,0,0,0.06172839506172839,70.18518518518518,0)" xlink:href="#U"/></g><g id="q"><use transform="matrix(0.06172839506172839,0,0,0.06172839506172839,0,0)" xlink:href="#B"/><use transform="matrix(0.06172839506172839,0,0,0.06172839506172839,11.049382716049381,0)" xlink:href="#C"/><use transform="matrix(0.06172839506172839,0,0,0.06172839506172839,23.39506172839506,0)" xlink:href="#D"/><use transform="matrix(0.06172839506172839,0,0,0.06172839506172839,35.74074074074074,0)" xlink:href="#C"/><use transform="matrix(0.06172839506172839,0,0,0.06172839506172839,48.08641975308642,0)" xlink:href="#E"/><use transform="matrix(0.06172839506172839,0,0,0.06172839506172839,52.96296296296296,0)" xlink:href="#C"/><use transform="matrix(0.06172839506172839,0,0,0.06172839506172839,65.30864197530865,0)" xlink:href="#F"/><use transform="matrix(0.06172839506172839,0,0,0.06172839506172839,77.65432098765433,0)" xlink:href="#G"/></g></defs></g></svg>